Titillium Math Sans Pro Zanichelli-Bold Italic.ufo
<glyph name="uni00AD" format="2">
  <advance width="0"/>
  <unicode hex="00AD"/>
  <note>
uni00AD
</note>
  <outline>
    <contour>
      <point x="152" y="217" type="line"/>
      <point x="178" y="337" type="line"/>
      <point x="-142" y="337" type="line"/>
      <point x="-168" y="217" type="line"/>
    </contour>
  </outline>
</glyph>
<glyph name="uni00B9" format="2">
  <advance width="243"/>
  <unicode hex="00B9"/>
  <note>
uni00B9
</note>
  <outline>
    <contour>
      <point x="241" y="416" type="line"/>
      <point x="307" y="737" type="line"/>
      <point x="211" y="737" type="line"/>
      <point x="91" y="664" type="line"/>
      <point x="116" y="594" type="line"/>
      <point x="179" y="630" type="line"/>
      <point x="135" y="416" type="line"/>
    </contour>
  </outline>
</glyph>
<glyph name="dotlessi" format="2">
  <advance width="257"/>
  <unicode hex="0131"/>
  <note>
dotlessi
</note>
  <outline>
    <contour>
      <point x="141" y="0" type="line"/>
      <point x="247" y="500" type="line"/>
      <point x="114" y="500" type="line"/>
      <point x="8" y="0" type="line"/>
    </contour>
  </outline>
</glyph>
<glyph name="uni013B" format="2">
  <advance width="484"/>
  <unicode hex="013B"/>
  <note>
uni013B
</note>
  <outline>
    <contour>
      <point x="307" y="710" type="line"/>
      <point x="170" y="710" type="line"/>
      <point x="18" y="0" type="line"/>
      <point x="419" y="0" type="line"/>
      <point x="445" y="122" type="line"/>
      <point x="181" y="122" type="line"/>
    </contour>
    <contour>
      <point x="196" y="-69" type="line"/>
      <point x="105" y="-239" type="line"/>
      <point x="178" y="-282" type="line"/>
      <point x="287" y="-125" type="line"/>
    </contour>
  </outline>
</glyph>
<glyph name="uni01D0" format="2">
  <advance width="257"/>
  <unicode hex="01D0"/>
  <note>
uni01D0
</note>
  <outline>
    <contour>
      <point x="417" y="738" type="line"/>
      <point x="287" y="738" type="line"/>
      <point x="197" y="640" type="line"/>
      <point x="149" y="738" type="line"/>
      <point x="39" y="738" type="line"/>
      <point x="132" y="561" type="line"/>
      <point x="248" y="561" type="line"/>
    </contour>
    <contour>
      <point x="114" y="500" type="line"/>
      <point x="8" y="0" type="line"/>
      <point x="141" y="0" type="line"/>
      <point x="247" y="500" type="line"/>
    </contour>
  </outline>
</glyph>
<glyph name="uni021A" format="2">
  <advance width="538"/>
  <unicode hex="021A"/>
  <note>
uni021A
</note>
  <outline>
    <contour>
      <point x="595" y="588" type="line"/>
      <point x="621" y="710" type="line"/>
      <point x="111" y="710" type="line"/>
      <point x="85" y="588" type="line"/>
      <point x="272" y="588" type="line"/>
      <point x="147" y="0" type="line"/>
      <point x="284" y="0" type="line"/>
      <point x="409" y="588" type="line"/>
    </contour>
    <contour>
      <point x="195" y="-69" type="line"/>
      <point x="104" y="-239" type="line"/>
      <point x="177" y="-282" type="line"/>
      <point x="286" y="-125" type="line"/>
    </contour>
  </outline>
</glyph>
<glyph name="uni0233" format="2">
  <advance width="483"/>
  <unicode hex="0233"/>
  <note>
uni0233
</note>
  <outline>
    <contour>
      <point x="446" y="587" type="line"/>
      <point x="468" y="687" type="line"/>
      <point x="181" y="687" type="line"/>
      <point x="159" y="587" type="line"/>
    </contour>
    <contour>
      <point x="157" y="0" type="line"/>
      <point x="47" y="-230" type="line"/>
      <point x="185" y="-230" type="line"/>
      <point x="523" y="510" type="line"/>
      <point x="387" y="510" type="line"/>
      <point x="220" y="114" type="line"/>
      <point x="195" y="114" type="line"/>
      <point x="209" y="510" type="line"/>
      <point x="79" y="510" type="line"/>
      <point x="69" y="0" type="line"/>
    </contour>
  </outline>
</glyph>
<glyph name="acutecomb" format="2">
  <advance width="0"/>
  <unicode hex="0301"/>
  <note>
acutecomb
</note>
  <outline>
    <contour>
      <point x="402" y="638" type="line"/>
      <point x="374" y="753" type="line"/>
      <point x="84" y="651" type="line"/>
      <point x="108" y="564" type="line"/>
    </contour>
  </outline>
</glyph>
<glyph name="uni0302" format="2">
  <advance width="0"/>
  <unicode hex="0302"/>
  <note>
uni0302
</note>
  <outline>
    <contour>
      <point x="67" y="569" type="line"/>
      <point x="197" y="569" type="line"/>
      <point x="287" y="667" type="line"/>
      <point x="335" y="569" type="line"/>
      <point x="445" y="569" type="line"/>
      <point x="352" y="746" type="line"/>
      <point x="236" y="746" type="line"/>
    </contour>
  </outline>
</glyph>
<glyph name="uni0304" format="2">
  <advance width="0"/>
  <unicode hex="0304"/>
  <note>
uni0304
</note>
  <outline>
    <contour>
      <point x="358" y="587" type="line"/>
      <point x="380" y="687" type="line"/>
      <point x="93" y="687" type="line"/>
      <point x="71" y="587" type="line"/>
    </contour>
  </outline>
</glyph>
<glyph name="uni0307" format="2">
  <advance width="0"/>
  <unicode hex="0307"/>
  <note>
uni0307
</note>
  <outline>
    <contour>
      <point x="205" y="587" type="line"/>
      <point x="235" y="730" type="line"/>
      <point x="101" y="730" type="line"/>
      <point x="71" y="587" type="line"/>
    </contour>
  </outline>
</glyph>
<glyph name="uni0308" format="2">
  <advance width="0"/>
  <unicode hex="0308"/>
  <note>
uni0308
</note>
  <outline>
    <contour>
      <point x="199" y="587" type="line"/>
      <point x="227" y="720" type="line"/>
      <point x="99" y="720" type="line"/>
      <point x="71" y="587" type="line"/>
    </contour>
    <contour>
      <point x="307" y="720" type="line"/>
      <point x="279" y="587" type="line"/>
      <point x="407" y="587" type="line"/>
      <point x="435" y="720" type="line"/>
    </contour>
  </outline>
</glyph>
<glyph name="uni0312" format="2">
  <advance width="0"/>
  <unicode hex="0312"/>
  <note>
uni0312
</note>
  <outline>
    <contour>
      <point x="196" y="760" type="line"/>
      <point x="78" y="624" type="line"/>
      <point x="163" y="562" type="line"/>
      <point x="266" y="710" type="line"/>
    </contour>
  </outline>
</glyph>
<glyph name="uni0313" format="2">
  <advance width="0"/>
  <unicode hex="0313"/>
  <note>
uni0313
</note>
  <outline>
    <contour>
      <point x="139" y="564" type="line"/>
      <point x="264" y="700" type="line"/>
      <point x="183" y="753" type="line"/>
      <point x="75" y="607" type="line"/>
    </contour>
  </outline>
</glyph>
<glyph name="uni0326" format="2">
  <advance width="0"/>
  <unicode hex="0326"/>
  <note>
uni0326
</note>
  <outline>
    <contour>
      <point x="123" y="-282" type="line"/>
      <point x="232" y="-125" type="line"/>
      <point x="141" y="-69" type="line"/>
      <point x="50" y="-239" type="line"/>
    </contour>
  </outline>
</glyph>
<glyph name="uni0331" format="2">
  <advance width="0"/>
  <unicode hex="0331"/>
  <note>
uni0331
</note>
  <outline>
    <contour>
      <point x="194" y="-184" type="line"/>
      <point x="216" y="-84" type="line"/>
      <point x="-71" y="-84" type="line"/>
      <point x="-93" y="-184" type="line"/>
    </contour>
  </outline>
</glyph>
<glyph name="uni0335" format="2">
  <advance width="0"/>
  <unicode hex="0335"/>
  <note>
uni0335
</note>
  <outline>
    <contour>
      <point x="354" y="558" type="line"/>
      <point x="378" y="672" type="line"/>
      <point x="12" y="672" type="line"/>
      <point x="-12" y="558" type="line"/>
    </contour>
  </outline>
</glyph>
<glyph name="uni0338" format="2">
  <advance width="0"/>
  <unicode hex="0338"/>
  <note>
uni0338
</note>
  <outline>
    <contour>
      <point x="-2" y="-71" type="line"/>
      <point x="548" y="704" type="line"/>
      <point x="475" y="758" type="line"/>
      <point x="-75" y="-17" type="line"/>
    </contour>
  </outline>
</glyph>
<glyph name="uni0394" format="2">
  <advance width="546"/>
  <unicode hex="0394"/>
  <note>
uni0394
</note>
  <outline>
    <contour>
      <point x="476" y="102" type="line"/>
      <point x="473" y="670" type="line"/>
      <point x="249" y="670" type="line"/>
      <point x="5" y="104" type="line"/>
      <point x="-17" y="0" type="line"/>
      <point x="455" y="0" type="line"/>
    </contour>
    <contour>
      <point x="350" y="114" type="line"/>
      <point x="144" y="114" type="line"/>
      <point x="331" y="558" type="line"/>
      <point x="352" y="558" type="line"/>
    </contour>
  </outline>
</glyph>
<glyph name="uni1E02" format="2">
  <advance width="615"/>
  <unicode hex="1E02"/>
  <note>
uni1E02
</note>
  <outline>
    <contour>
      <point x="459" y="777" type="line"/>
      <point x="489" y="920" type="line"/>
      <point x="355" y="920" type="line"/>
      <point x="325" y="777" type="line"/>
    </contour>
    <contour>
      <point x="170" y="710" type="line"/>
      <point x="18" y="0" type="line"/>
      <point x="317" y="0" type="line" smooth="yes"/>
      <point x="509" y="0"/>
      <point x="564" y="121"/>
      <point x="564" y="225" type="curve" smooth="yes"/>
      <point x="564" y="305"/>
      <point x="526" y="347"/>
      <point x="480" y="362" type="curve"/>
      <point x="571" y="387"/>
      <point x="611" y="463"/>
      <point x="611" y="538" type="curve" smooth="yes"/>
      <point x="611" y="653"/>
      <point x="539" y="710"/>
      <point x="427" y="710" type="curve" smooth="yes"/>
    </contour>
    <contour>
      <point x="308" y="118" type="curve" smooth="yes"/>
      <point x="178" y="118" type="line"/>
      <point x="216" y="301" type="line"/>
      <point x="354" y="301" type="line" smooth="yes"/>
      <point x="398" y="301"/>
      <point x="424" y="280"/>
      <point x="424" y="221" type="curve" smooth="yes"/>
      <point x="424" y="160"/>
      <point x="393" y="118"/>
    </contour>
    <contour>
      <point x="373" y="417" type="curve" smooth="yes"/>
      <point x="243" y="417" type="line"/>
      <point x="280" y="592" type="line"/>
      <point x="400" y="592" type="line" smooth="yes"/>
      <point x="451" y="592"/>
      <point x="474" y="568"/>
      <point x="474" y="511" type="curve" smooth="yes"/>
      <point x="474" y="463"/>
      <point x="442" y="417"/>
    </contour>
  </outline>
</glyph>
<glyph name="uni1E0C" format="2">
  <advance width="641"/>
  <unicode hex="1E0C"/>
  <note>
uni1E0C
</note>
  <outline>
    <contour>
      <point x="403" y="710" type="curve" smooth="yes"/>
      <point x="170" y="710" type="line"/>
      <point x="18" y="0" type="line"/>
      <point x="279" y="0" type="line" smooth="yes"/>
      <point x="552" y="0"/>
      <point x="630" y="300"/>
      <point x="630" y="485" type="curve" smooth="yes"/>
      <point x="630" y="627"/>
      <point x="564" y="710"/>
    </contour>
    <contour>
      <point x="166" y="-84" type="line"/>
      <point x="136" y="-227" type="line"/>
      <point x="270" y="-227" type="line"/>
      <point x="300" y="-84" type="line"/>
    </contour>
    <contour>
      <point x="269" y="120" type="curve" smooth="yes"/>
      <point x="181" y="120" type="line"/>
      <point x="281" y="590" type="line"/>
      <point x="370" y="590" type="line" smooth="yes"/>
      <point x="451" y="590"/>
      <point x="488" y="560"/>
      <point x="488" y="472" type="curve" smooth="yes"/>
      <point x="488" y="362"/>
      <point x="437" y="120"/>
    </contour>
  </outline>
</glyph>
<glyph name="uni1E3A" format="2">
  <advance width="484"/>
  <unicode hex="1E3A"/>
  <note>
uni1E3A
</note>
  <outline>
    <contour>
      <point x="307" y="710" type="line"/>
      <point x="170" y="710" type="line"/>
      <point x="18" y="0" type="line"/>
      <point x="419" y="0" type="line"/>
      <point x="445" y="122" type="line"/>
      <point x="181" y="122" type="line"/>
    </contour>
    <contour>
      <point x="55" y="-84" type="line"/>
      <point x="33" y="-184" type="line"/>
      <point x="320" y="-184" type="line"/>
      <point x="342" y="-84" type="line"/>
    </contour>
  </outline>
</glyph>
<glyph name="uni1E42" format="2">
  <advance width="829"/>
  <unicode hex="1E42"/>
  <note>
uni1E42
</note>
  <outline>
    <contour>
      <point x="395" y="152" type="line"/>
      <point x="409" y="710" type="line"/>
      <point x="169" y="710" type="line"/>
      <point x="18" y="0" type="line"/>
      <point x="149" y="0" type="line"/>
      <point x="267" y="556" type="line"/>
      <point x="297" y="556" type="line"/>
      <point x="291" y="0" type="line"/>
      <point x="435" y="0" type="line"/>
      <point x="664" y="556" type="line"/>
      <point x="694" y="556" type="line"/>
      <point x="576" y="0" type="line"/>
      <point x="703" y="0" type="line"/>
      <point x="854" y="710" type="line"/>
      <point x="621" y="710" type="line"/>
    </contour>
    <contour>
      <point x="287" y="-84" type="line"/>
      <point x="257" y="-227" type="line"/>
      <point x="391" y="-227" type="line"/>
      <point x="421" y="-84" type="line"/>
    </contour>
  </outline>
</glyph>
<glyph name="uni1E5F" format="2">
  <advance width="362"/>
  <unicode hex="1E5F"/>
  <note>
uni1E5F
</note>
  <outline>
    <contour>
      <point x="226" y="451" type="curve"/>
      <point x="235" y="510" type="line"/>
      <point x="117" y="510" type="line"/>
      <point x="8" y="0" type="line"/>
      <point x="139" y="0" type="line"/>
      <point x="211" y="345" type="line"/>
      <point x="211" y="345"/>
      <point x="286" y="374"/>
      <point x="370" y="391" type="curve"/>
      <point x="404" y="526" type="line"/>
      <point x="297" y="511"/>
      <point x="226" y="451"/>
    </contour>
    <contour>
      <point x="-84" y="-84" type="line"/>
      <point x="-106" y="-184" type="line"/>
      <point x="181" y="-184" type="line"/>
      <point x="203" y="-84" type="line"/>
    </contour>
  </outline>
</glyph>
<glyph name="minute" format="2">
  <advance width="277"/>
  <unicode hex="2032"/>
  <note>
minute
</note>
  <outline>
    <contour>
      <point x="201" y="420" type="line"/>
      <point x="316" y="670" type="line"/>
      <point x="184" y="670" type="line"/>
      <point x="83" y="420" type="line"/>
    </contour>
  </outline>
</glyph>
<glyph name="second" format="2">
  <advance width="477"/>
  <unicode hex="2033"/>
  <note>
second
</note>
  <outline>
    <contour>
      <point x="201" y="420" type="line"/>
      <point x="316" y="670" type="line"/>
      <point x="184" y="670" type="line"/>
      <point x="83" y="420" type="line"/>
    </contour>
    <contour>
      <point x="384" y="670" type="line"/>
      <point x="283" y="420" type="line"/>
      <point x="401" y="420" type="line"/>
      <point x="516" y="670" type="line"/>
    </contour>
  </outline>
</glyph>
<glyph name="uni2077" format="2">
  <advance width="273"/>
  <unicode hex="2077"/>
  <note>
uni2077
</note>
  <outline>
    <contour>
      <point x="337" y="644" type="line"/>
      <point x="356" y="737" type="line"/>
      <point x="119" y="737" type="line"/>
      <point x="99" y="642" type="line"/>
      <point x="212" y="642" type="line"/>
      <point x="209" y="627" type="line"/>
      <point x="79" y="431" type="line"/>
      <point x="167" y="392" type="line"/>
    </contour>
  </outline>
</glyph>
<glyph name="uni2087" format="2">
  <advance width="273"/>
  <unicode hex="2087"/>
  <note>
uni2087
</note>
  <outline>
    <contour>
      <point x="222" y="103" type="line"/>
      <point x="241" y="196" type="line"/>
      <point x="4" y="196" type="line"/>
      <point x="-16" y="101" type="line"/>
      <point x="97" y="101" type="line"/>
      <point x="94" y="86" type="line"/>
      <point x="-36" y="-110" type="line"/>
      <point x="52" y="-149" type="line"/>
    </contour>
  </outline>
</glyph>
<glyph name="uni2116" format="2">
  <advance width="1101"/>
  <unicode hex="2116"/>
  <note>
uni2116
</note>
  <outline>
    <contour>
      <point x="440" y="120" type="line"/>
      <point x="411" y="710" type="line"/>
      <point x="170" y="710" type="line"/>
      <point x="18" y="0" type="line"/>
      <point x="151" y="0" type="line"/>
      <point x="277" y="590" type="line"/>
      <point x="307" y="590" type="line"/>
      <point x="342" y="0" type="line"/>
      <point x="578" y="0" type="line"/>
      <point x="729" y="710" type="line"/>
      <point x="596" y="710" type="line"/>
      <point x="470" y="120" type="line"/>
    </contour>
    <contour>
      <point x="734" y="331" type="line"/>
      <point x="715" y="241" type="line"/>
      <point x="1035" y="241" type="line"/>
      <point x="1054" y="331" type="line"/>
    </contour>
    <contour>
      <point x="765" y="518" type="curve" smooth="yes"/>
      <point x="765" y="429"/>
      <point x="819" y="381"/>
      <point x="916" y="381" type="curve" smooth="yes"/>
      <point x="1070" y="381"/>
      <point x="1119" y="499"/>
      <point x="1119" y="592" type="curve" smooth="yes"/>
      <point x="1119" y="681"/>
      <point x="1065" y="726"/>
      <point x="967" y="726" type="curve" smooth="yes"/>
      <point x="809" y="726"/>
      <point x="765" y="610"/>
    </contour>
    <contour>
      <point x="888" y="521" type="curve" smooth="yes"/>
      <point x="888" y="555"/>
      <point x="905" y="624"/>
      <point x="957" y="624" type="curve" smooth="yes"/>
      <point x="985" y="624"/>
      <point x="995" y="612"/>
      <point x="995" y="589" type="curve" smooth="yes"/>
      <point x="995" y="556"/>
      <point x="985" y="484"/>
      <point x="927" y="484" type="curve" smooth="yes"/>
      <point x="898" y="484"/>
      <point x="888" y="497"/>
    </contour>
  </outline>
</glyph>
<glyph name="uni215F" format="2">
  <advance width="563"/>
  <unicode hex="215F"/>
  <note>
uni215F
</note>
  <outline>
    <contour>
      <point x="58" y="-11" type="line"/>
      <point x="634" y="657" type="line"/>
      <point x="575" y="710" type="line"/>
      <point x="2" y="43" type="line"/>
    </contour>
    <contour>
      <point x="225" y="707" type="line"/>
      <point x="105" y="634" type="line"/>
      <point x="130" y="564" type="line"/>
      <point x="193" y="600" type="line"/>
      <point x="149" y="386" type="line"/>
      <point x="255" y="386" type="line"/>
      <point x="321" y="707" type="line"/>
    </contour>
  </outline>
</glyph>
<glyph name="uni2460" format="2">
  <advance width="890"/>
  <unicode hex="2460"/>
  <note>
uni2460
</note>
  <outline>
    <contour>
      <point x="400" y="-40" type="curve" smooth="yes"/>
      <point x="662" y="-40"/>
      <point x="871" y="179"/>
      <point x="871" y="413" type="curve" smooth="yes"/>
      <point x="871" y="600"/>
      <point x="736" y="740"/>
      <point x="529" y="740" type="curve" smooth="yes"/>
      <point x="271" y="740"/>
      <point x="60" y="523"/>
      <point x="60" y="286" type="curve" smooth="yes"/>
      <point x="60" y="97"/>
      <point x="194" y="-40"/>
    </contour>
    <contour>
      <point x="172" y="287" type="curve" smooth="yes"/>
      <point x="172" y="462"/>
      <point x="328" y="635"/>
      <point x="527" y="635" type="curve" smooth="yes"/>
      <point x="670" y="635"/>
      <point x="759" y="542"/>
      <point x="759" y="410" type="curve" smooth="yes"/>
      <point x="759" y="234"/>
      <point x="601" y="65"/>
      <point x="405" y="65" type="curve" smooth="yes"/>
      <point x="260" y="65"/>
      <point x="172" y="156"/>
    </contour>
    <contour>
      <point x="465" y="526" type="line"/>
      <point x="333" y="446" type="line"/>
      <point x="361" y="369" type="line"/>
      <point x="430" y="408" type="line"/>
      <point x="382" y="173" type="line"/>
      <point x="498" y="173" type="line"/>
      <point x="571" y="526" type="line"/>
    </contour>
  </outline>
</glyph>
<glyph name="uni2461" format="2">
  <advance width="890"/>
  <unicode hex="2461"/>
  <note>
uni2461
</note>
  <outline>
    <contour>
      <point x="400" y="-40" type="curve" smooth="yes"/>
      <point x="662" y="-40"/>
      <point x="871" y="179"/>
      <point x="871" y="413" type="curve" smooth="yes"/>
      <point x="871" y="600"/>
      <point x="736" y="740"/>
      <point x="529" y="740" type="curve" smooth="yes"/>
      <point x="271" y="740"/>
      <point x="60" y="523"/>
      <point x="60" y="286" type="curve" smooth="yes"/>
      <point x="60" y="97"/>
      <point x="194" y="-40"/>
    </contour>
    <contour>
      <point x="172" y="287" type="curve" smooth="yes"/>
      <point x="172" y="462"/>
      <point x="328" y="635"/>
      <point x="527" y="635" type="curve" smooth="yes"/>
      <point x="670" y="635"/>
      <point x="759" y="542"/>
      <point x="759" y="410" type="curve" smooth="yes"/>
      <point x="759" y="234"/>
      <point x="601" y="65"/>
      <point x="405" y="65" type="curve" smooth="yes"/>
      <point x="260" y="65"/>
      <point x="172" y="156"/>
    </contour>
    <contour>
      <point x="323" y="265" type="line"/>
      <point x="304" y="173" type="line"/>
      <point x="558" y="173" type="line"/>
      <point x="579" y="272" type="line"/>
      <point x="469" y="272" type="line"/>
      <point x="516" y="314" type="line" smooth="yes"/>
      <point x="584" y="377"/>
      <point x="616" y="395"/>
      <point x="616" y="452" type="curve" smooth="yes"/>
      <point x="616" y="501"/>
      <point x="586" y="536"/>
      <point x="511" y="536" type="curve" smooth="yes"/>
      <point x="462" y="536"/>
      <point x="379" y="526"/>
      <point x="379" y="526" type="curve"/>
      <point x="363" y="424" type="line"/>
      <point x="363" y="424"/>
      <point x="425" y="430"/>
      <point x="450" y="430" type="curve" smooth="yes"/>
      <point x="477" y="430"/>
      <point x="484" y="423"/>
      <point x="484" y="410" type="curve" smooth="yes"/>
      <point x="484" y="392"/>
      <point x="468" y="380"/>
      <point x="434" y="352" type="curve" smooth="yes"/>
    </contour>
  </outline>
</glyph>
<glyph name="uni2462" format="2">
  <advance width="890"/>
  <unicode hex="2462"/>
  <note>
uni2462
</note>
  <outline>
    <contour>
      <point x="400" y="-40" type="curve" smooth="yes"/>
      <point x="662" y="-40"/>
      <point x="871" y="179"/>
      <point x="871" y="413" type="curve" smooth="yes"/>
      <point x="871" y="600"/>
      <point x="736" y="740"/>
      <point x="529" y="740" type="curve" smooth="yes"/>
      <point x="271" y="740"/>
      <point x="60" y="523"/>
      <point x="60" y="286" type="curve" smooth="yes"/>
      <point x="60" y="97"/>
      <point x="194" y="-40"/>
    </contour>
    <contour>
      <point x="172" y="287" type="curve" smooth="yes"/>
      <point x="172" y="462"/>
      <point x="328" y="635"/>
      <point x="527" y="635" type="curve" smooth="yes"/>
      <point x="670" y="635"/>
      <point x="759" y="542"/>
      <point x="759" y="410" type="curve" smooth="yes"/>
      <point x="759" y="234"/>
      <point x="601" y="65"/>
      <point x="405" y="65" type="curve" smooth="yes"/>
      <point x="260" y="65"/>
      <point x="172" y="156"/>
    </contour>
    <contour>
      <point x="319" y="270" type="curve"/>
      <point x="292" y="171" type="line"/>
      <point x="292" y="171"/>
      <point x="374" y="163"/>
      <point x="420" y="163" type="curve" smooth="yes"/>
      <point x="523" y="163"/>
      <point x="583" y="203"/>
      <point x="583" y="289" type="curve" smooth="yes"/>
      <point x="583" y="330"/>
      <point x="569" y="354"/>
      <point x="526" y="365" type="curve"/>
      <point x="583" y="380"/>
      <point x="604" y="418"/>
      <point x="604" y="461" type="curve" smooth="yes"/>
      <point x="604" y="512"/>
      <point x="571" y="541"/>
      <point x="491" y="541" type="curve" smooth="yes"/>
      <point x="444" y="541"/>
      <point x="370" y="531"/>
      <point x="370" y="531" type="curve"/>
      <point x="356" y="433" type="line"/>
      <point x="356" y="433"/>
      <point x="411" y="439"/>
      <point x="451" y="439" type="curve" smooth="yes"/>
      <point x="467" y="439"/>
      <point x="478" y="437"/>
      <point x="478" y="421" type="curve" smooth="yes"/>
      <point x="478" y="408"/>
      <point x="468" y="398"/>
      <point x="451" y="398" type="curve" smooth="yes"/>
      <point x="379" y="398" type="line"/>
      <point x="361" y="318" type="line"/>
      <point x="436" y="318" type="line" smooth="yes"/>
      <point x="453" y="318"/>
      <point x="459" y="313"/>
      <point x="459" y="294" type="curve" smooth="yes"/>
      <point x="459" y="272"/>
      <point x="448" y="264"/>
      <point x="422" y="264" type="curve" smooth="yes"/>
      <point x="385" y="264"/>
      <point x="319" y="270"/>
    </contour>
  </outline>
</glyph>
<glyph name="uni2463" format="2">
  <advance width="890"/>
  <unicode hex="2463"/>
  <note>
uni2463
</note>
  <outline>
    <contour>
      <point x="400" y="-40" type="curve" smooth="yes"/>
      <point x="662" y="-40"/>
      <point x="871" y="179"/>
      <point x="871" y="413" type="curve" smooth="yes"/>
      <point x="871" y="600"/>
      <point x="736" y="740"/>
      <point x="529" y="740" type="curve" smooth="yes"/>
      <point x="271" y="740"/>
      <point x="60" y="523"/>
      <point x="60" y="286" type="curve" smooth="yes"/>
      <point x="60" y="97"/>
      <point x="194" y="-40"/>
    </contour>
    <contour>
      <point x="172" y="287" type="curve" smooth="yes"/>
      <point x="172" y="462"/>
      <point x="328" y="635"/>
      <point x="527" y="635" type="curve" smooth="yes"/>
      <point x="670" y="635"/>
      <point x="759" y="542"/>
      <point x="759" y="410" type="curve" smooth="yes"/>
      <point x="759" y="234"/>
      <point x="601" y="65"/>
      <point x="405" y="65" type="curve" smooth="yes"/>
      <point x="260" y="65"/>
      <point x="172" y="156"/>
    </contour>
    <contour>
      <point x="315" y="324" type="line"/>
      <point x="295" y="227" type="line"/>
      <point x="442" y="227" type="line"/>
      <point x="431" y="173" type="line"/>
      <point x="535" y="173" type="line"/>
      <point x="546" y="227" type="line"/>
      <point x="572" y="227" type="line"/>
      <point x="593" y="326" type="line"/>
      <point x="567" y="326" type="line"/>
      <point x="585" y="423" type="line"/>
      <point x="501" y="423" type="line"/>
      <point x="466" y="326" type="line"/>
      <point x="415" y="326" type="line"/>
      <point x="532" y="526" type="line"/>
      <point x="402" y="526" type="line"/>
    </contour>
  </outline>
</glyph>
<glyph name="uni2464" format="2">
  <advance width="890"/>
  <unicode hex="2464"/>
  <note>
uni2464
</note>
  <outline>
    <contour>
      <point x="400" y="-40" type="curve" smooth="yes"/>
      <point x="662" y="-40"/>
      <point x="871" y="179"/>
      <point x="871" y="413" type="curve" smooth="yes"/>
      <point x="871" y="600"/>
      <point x="736" y="740"/>
      <point x="529" y="740" type="curve" smooth="yes"/>
      <point x="271" y="740"/>
      <point x="60" y="523"/>
      <point x="60" y="286" type="curve" smooth="yes"/>
      <point x="60" y="97"/>
      <point x="194" y="-40"/>
    </contour>
    <contour>
      <point x="172" y="287" type="curve" smooth="yes"/>
      <point x="172" y="462"/>
      <point x="328" y="635"/>
      <point x="527" y="635" type="curve" smooth="yes"/>
      <point x="670" y="635"/>
      <point x="759" y="542"/>
      <point x="759" y="410" type="curve" smooth="yes"/>
      <point x="759" y="234"/>
      <point x="601" y="65"/>
      <point x="405" y="65" type="curve" smooth="yes"/>
      <point x="260" y="65"/>
      <point x="172" y="156"/>
    </contour>
    <contour>
      <point x="323" y="268" type="curve"/>
      <point x="294" y="178" type="line"/>
      <point x="294" y="178"/>
      <point x="363" y="163"/>
      <point x="421" y="163" type="curve" smooth="yes"/>
      <point x="537" y="163"/>
      <point x="589" y="233"/>
      <point x="589" y="322" type="curve" smooth="yes"/>
      <point x="589" y="372"/>
      <point x="556" y="400"/>
      <point x="500" y="400" type="curve" smooth="yes"/>
      <point x="473" y="400"/>
      <point x="441" y="393"/>
      <point x="441" y="393" type="curve"/>
      <point x="459" y="438" type="line"/>
      <point x="595" y="438" type="line"/>
      <point x="615" y="531" type="line"/>
      <point x="388" y="531" type="line"/>
      <point x="331" y="324" type="line"/>
      <point x="404" y="312" type="line"/>
      <point x="404" y="312"/>
      <point x="429" y="320"/>
      <point x="446" y="320" type="curve" smooth="yes"/>
      <point x="459" y="320"/>
      <point x="468" y="316"/>
      <point x="468" y="297" type="curve" smooth="yes"/>
      <point x="468" y="269"/>
      <point x="451" y="261"/>
      <point x="427" y="261" type="curve" smooth="yes"/>
      <point x="388" y="261"/>
      <point x="323" y="268"/>
    </contour>
  </outline>
</glyph>
<glyph name="uni2465" format="2">
  <advance width="890"/>
  <unicode hex="2465"/>
  <note>
uni2465
</note>
  <outline>
    <contour>
      <point x="400" y="-40" type="curve" smooth="yes"/>
      <point x="662" y="-40"/>
      <point x="871" y="179"/>
      <point x="871" y="413" type="curve" smooth="yes"/>
      <point x="871" y="600"/>
      <point x="736" y="740"/>
      <point x="529" y="740" type="curve" smooth="yes"/>
      <point x="271" y="740"/>
      <point x="60" y="523"/>
      <point x="60" y="286" type="curve" smooth="yes"/>
      <point x="60" y="97"/>
      <point x="194" y="-40"/>
    </contour>
    <contour>
      <point x="172" y="287" type="curve" smooth="yes"/>
      <point x="172" y="462"/>
      <point x="328" y="635"/>
      <point x="527" y="635" type="curve" smooth="yes"/>
      <point x="670" y="635"/>
      <point x="759" y="542"/>
      <point x="759" y="410" type="curve" smooth="yes"/>
      <point x="759" y="234"/>
      <point x="601" y="65"/>
      <point x="405" y="65" type="curve" smooth="yes"/>
      <point x="260" y="65"/>
      <point x="172" y="156"/>
    </contour>
    <contour>
      <point x="305" y="292" type="curve" smooth="yes"/>
      <point x="305" y="212"/>
      <point x="344" y="163"/>
      <point x="443" y="163" type="curve" smooth="yes"/>
      <point x="524" y="163"/>
      <point x="598" y="213"/>
      <point x="598" y="311" type="curve" smooth="yes"/>
      <point x="598" y="361"/>
      <point x="562" y="393"/>
      <point x="509" y="393" type="curve" smooth="yes"/>
      <point x="463" y="393"/>
      <point x="439" y="378"/>
      <point x="439" y="378" type="curve"/>
      <point x="448" y="428"/>
      <point x="458" y="439"/>
      <point x="495" y="439" type="curve" smooth="yes"/>
      <point x="517" y="439"/>
      <point x="600" y="432"/>
      <point x="600" y="432" type="curve"/>
      <point x="627" y="528" type="line"/>
      <point x="627" y="528"/>
      <point x="566" y="541"/>
      <point x="513" y="541" type="curve" smooth="yes"/>
      <point x="356" y="541"/>
      <point x="305" y="417"/>
    </contour>
    <contour>
      <point x="421" y="283" type="curve" smooth="yes"/>
      <point x="421" y="290"/>
      <point x="422" y="298"/>
      <point x="424" y="308" type="curve"/>
      <point x="424" y="308"/>
      <point x="435" y="318"/>
      <point x="455" y="318" type="curve" smooth="yes"/>
      <point x="468" y="318"/>
      <point x="478" y="314"/>
      <point x="478" y="298" type="curve" smooth="yes"/>
      <point x="478" y="279"/>
      <point x="466" y="257"/>
      <point x="443" y="257" type="curve" smooth="yes"/>
      <point x="427" y="257"/>
      <point x="421" y="266"/>
    </contour>
  </outline>
</glyph>
<glyph name="uni2467" format="2">
  <advance width="890"/>
  <unicode hex="2467"/>
  <note>
uni2467
</note>
  <outline>
    <contour>
      <point x="400" y="-40" type="curve" smooth="yes"/>
      <point x="662" y="-40"/>
      <point x="871" y="179"/>
      <point x="871" y="413" type="curve" smooth="yes"/>
      <point x="871" y="600"/>
      <point x="736" y="740"/>
      <point x="529" y="740" type="curve" smooth="yes"/>
      <point x="271" y="740"/>
      <point x="60" y="523"/>
      <point x="60" y="286" type="curve" smooth="yes"/>
      <point x="60" y="97"/>
      <point x="194" y="-40"/>
    </contour>
    <contour>
      <point x="172" y="287" type="curve" smooth="yes"/>
      <point x="172" y="462"/>
      <point x="328" y="635"/>
      <point x="527" y="635" type="curve" smooth="yes"/>
      <point x="670" y="635"/>
      <point x="759" y="542"/>
      <point x="759" y="410" type="curve" smooth="yes"/>
      <point x="759" y="234"/>
      <point x="601" y="65"/>
      <point x="405" y="65" type="curve" smooth="yes"/>
      <point x="260" y="65"/>
      <point x="172" y="156"/>
    </contour>
    <contour>
      <point x="304" y="259" type="curve" smooth="yes"/>
      <point x="304" y="200"/>
      <point x="349" y="163"/>
      <point x="439" y="163" type="curve" smooth="yes"/>
      <point x="545" y="163"/>
      <point x="604" y="212"/>
      <point x="604" y="294" type="curve" smooth="yes"/>
      <point x="604" y="325"/>
      <point x="584" y="347"/>
      <point x="565" y="357" type="curve"/>
      <point x="590" y="376"/>
      <point x="619" y="402"/>
      <point x="619" y="450" type="curve" smooth="yes"/>
      <point x="619" y="496"/>
      <point x="586" y="541"/>
      <point x="496" y="541" type="curve" smooth="yes"/>
      <point x="412" y="541"/>
      <point x="342" y="500"/>
      <point x="342" y="422" type="curve" smooth="yes"/>
      <point x="342" y="396"/>
      <point x="355" y="377"/>
      <point x="370" y="357" type="curve"/>
      <point x="340" y="343"/>
      <point x="304" y="316"/>
    </contour>
    <contour>
      <point x="419" y="283" type="curve" smooth="yes"/>
      <point x="419" y="299"/>
      <point x="429" y="311"/>
      <point x="445" y="319" type="curve"/>
      <point x="477" y="319" type="line"/>
      <point x="484" y="313"/>
      <point x="489" y="306"/>
      <point x="489" y="296" type="curve" smooth="yes"/>
      <point x="489" y="275"/>
      <point x="477" y="259"/>
      <point x="450" y="259" type="curve" smooth="yes"/>
      <point x="429" y="259"/>
      <point x="419" y="269"/>
    </contour>
    <contour>
      <point x="447" y="412" type="curve" smooth="yes"/>
      <point x="447" y="432"/>
      <point x="461" y="448"/>
      <point x="485" y="448" type="curve" smooth="yes"/>
      <point x="504" y="448"/>
      <point x="514" y="438"/>
      <point x="514" y="426" type="curve" smooth="yes"/>
      <point x="514" y="409"/>
      <point x="501" y="397"/>
      <point x="490" y="391" type="curve"/>
      <point x="458" y="391" type="line"/>
      <point x="451" y="395"/>
      <point x="447" y="404"/>
    </contour>
  </outline>
</glyph>
<glyph name="uni2468" format="2">
  <advance width="890"/>
  <unicode hex="2468"/>
  <note>
uni2468
</note>
  <outline>
    <contour>
      <point x="400" y="-40" type="curve" smooth="yes"/>
      <point x="662" y="-40"/>
      <point x="871" y="179"/>
      <point x="871" y="413" type="curve" smooth="yes"/>
      <point x="871" y="600"/>
      <point x="736" y="740"/>
      <point x="529" y="740" type="curve" smooth="yes"/>
      <point x="271" y="740"/>
      <point x="60" y="523"/>
      <point x="60" y="286" type="curve" smooth="yes"/>
      <point x="60" y="97"/>
      <point x="194" y="-40"/>
    </contour>
    <contour>
      <point x="172" y="287" type="curve" smooth="yes"/>
      <point x="172" y="462"/>
      <point x="328" y="635"/>
      <point x="527" y="635" type="curve" smooth="yes"/>
      <point x="670" y="635"/>
      <point x="759" y="542"/>
      <point x="759" y="410" type="curve" smooth="yes"/>
      <point x="759" y="234"/>
      <point x="601" y="65"/>
      <point x="405" y="65" type="curve" smooth="yes"/>
      <point x="260" y="65"/>
      <point x="172" y="156"/>
    </contour>
    <contour>
      <point x="327" y="272" type="curve"/>
      <point x="299" y="176" type="line"/>
      <point x="299" y="176"/>
      <point x="371" y="163"/>
      <point x="424" y="163" type="curve" smooth="yes"/>
      <point x="572" y="163"/>
      <point x="621" y="294"/>
      <point x="621" y="415" type="curve" smooth="yes"/>
      <point x="621" y="503"/>
      <point x="568" y="541"/>
      <point x="479" y="541" type="curve" smooth="yes"/>
      <point x="385" y="541"/>
      <point x="329" y="478"/>
      <point x="329" y="398" type="curve" smooth="yes"/>
      <point x="329" y="349"/>
      <point x="364" y="316"/>
      <point x="418" y="316" type="curve" smooth="yes"/>
      <point x="463" y="316"/>
      <point x="486" y="330"/>
      <point x="486" y="330" type="curve"/>
      <point x="479" y="284"/>
      <point x="468" y="265"/>
      <point x="430" y="265" type="curve" smooth="yes"/>
      <point x="408" y="265"/>
      <point x="327" y="272"/>
    </contour>
    <contour>
      <point x="449" y="415" type="curve" smooth="yes"/>
      <point x="449" y="433"/>
      <point x="458" y="451"/>
      <point x="481" y="451" type="curve" smooth="yes"/>
      <point x="496" y="451"/>
      <point x="506" y="442"/>
      <point x="506" y="426" type="curve" smooth="yes"/>
      <point x="506" y="418"/>
      <point x="505" y="410"/>
      <point x="503" y="400" type="curve"/>
      <point x="503" y="400"/>
      <point x="492" y="390"/>
      <point x="472" y="390" type="curve" smooth="yes"/>
      <point x="458" y="390"/>
      <point x="449" y="398"/>
    </contour>
  </outline>
</glyph>
<glyph name="uni24EA" format="2">
  <advance width="890"/>
  <unicode hex="24EA"/>
  <note>
uni24EA
</note>
  <outline>
    <contour>
      <point x="400" y="-40" type="curve" smooth="yes"/>
      <point x="662" y="-40"/>
      <point x="871" y="179"/>
      <point x="871" y="413" type="curve" smooth="yes"/>
      <point x="871" y="600"/>
      <point x="736" y="740"/>
      <point x="529" y="740" type="curve" smooth="yes"/>
      <point x="271" y="740"/>
      <point x="60" y="523"/>
      <point x="60" y="286" type="curve" smooth="yes"/>
      <point x="60" y="97"/>
      <point x="194" y="-40"/>
    </contour>
    <contour>
      <point x="172" y="287" type="curve" smooth="yes"/>
      <point x="172" y="462"/>
      <point x="328" y="635"/>
      <point x="527" y="635" type="curve" smooth="yes"/>
      <point x="670" y="635"/>
      <point x="759" y="542"/>
      <point x="759" y="410" type="curve" smooth="yes"/>
      <point x="759" y="234"/>
      <point x="601" y="65"/>
      <point x="405" y="65" type="curve" smooth="yes"/>
      <point x="260" y="65"/>
      <point x="172" y="156"/>
    </contour>
    <contour>
      <point x="314" y="284" type="curve" smooth="yes"/>
      <point x="314" y="196"/>
      <point x="365" y="163"/>
      <point x="437" y="163" type="curve" smooth="yes"/>
      <point x="588" y="163"/>
      <point x="618" y="338"/>
      <point x="618" y="419" type="curve" smooth="yes"/>
      <point x="618" y="508"/>
      <point x="566" y="541"/>
      <point x="493" y="541" type="curve" smooth="yes"/>
      <point x="347" y="541"/>
      <point x="314" y="380"/>
    </contour>
    <contour>
      <point x="429" y="284" type="curve" smooth="yes"/>
      <point x="429" y="305"/>
      <point x="447" y="442"/>
      <point x="487" y="442" type="curve" smooth="yes"/>
      <point x="495" y="442"/>
      <point x="502" y="440"/>
      <point x="502" y="421" type="curve" smooth="yes"/>
      <point x="502" y="404"/>
      <point x="489" y="262"/>
      <point x="445" y="262" type="curve" smooth="yes"/>
      <point x="436" y="262"/>
      <point x="429" y="265"/>
    </contour>
  </outline>
</glyph>
<glyph name="uni24FF" format="2">
  <advance width="888"/>
  <unicode hex="24FF"/>
  <note>
uni24FF
</note>
  <outline>
    <contour>
      <point x="493" y="541" type="curve" smooth="yes"/>
      <point x="347" y="541"/>
      <point x="314" y="380"/>
      <point x="314" y="284" type="curve" smooth="yes"/>
      <point x="314" y="196"/>
      <point x="365" y="163"/>
      <point x="437" y="163" type="curve" smooth="yes"/>
      <point x="588" y="163"/>
      <point x="618" y="338"/>
      <point x="618" y="419" type="curve" smooth="yes"/>
      <point x="618" y="508"/>
      <point x="566" y="541"/>
    </contour>
    <contour>
      <point x="58" y="274" type="curve" smooth="yes"/>
      <point x="56" y="510"/>
      <point x="269" y="740"/>
      <point x="538" y="740" type="curve" smooth="yes"/>
      <point x="742" y="740"/>
      <point x="871" y="606"/>
      <point x="871" y="423" type="curve" smooth="yes"/>
      <point x="871" y="187"/>
      <point x="654" y="-40"/>
      <point x="389" y="-40" type="curve" smooth="yes"/>
      <point x="187" y="-40"/>
      <point x="60" y="92"/>
    </contour>
    <contour>
      <point x="429" y="284" type="curve" smooth="yes"/>
      <point x="429" y="305"/>
      <point x="447" y="442"/>
      <point x="487" y="442" type="curve" smooth="yes"/>
      <point x="495" y="442"/>
      <point x="502" y="440"/>
      <point x="502" y="421" type="curve" smooth="yes"/>
      <point x="502" y="404"/>
      <point x="489" y="262"/>
      <point x="445" y="262" type="curve" smooth="yes"/>
      <point x="436" y="262"/>
      <point x="429" y="265"/>
    </contour>
  </outline>
</glyph>
<glyph name="uni2776" format="2">
  <advance width="888"/>
  <unicode hex="2776"/>
  <note>
uni2776
</note>
  <outline>
    <contour>
      <point x="498" y="173" type="line"/>
      <point x="571" y="526" type="line"/>
      <point x="465" y="526" type="line"/>
      <point x="333" y="446" type="line"/>
      <point x="361" y="369" type="line"/>
      <point x="430" y="408" type="line"/>
      <point x="382" y="173" type="line"/>
    </contour>
    <contour>
      <point x="58" y="274" type="curve" smooth="yes"/>
      <point x="56" y="510"/>
      <point x="269" y="740"/>
      <point x="538" y="740" type="curve" smooth="yes"/>
      <point x="742" y="740"/>
      <point x="871" y="606"/>
      <point x="871" y="423" type="curve" smooth="yes"/>
      <point x="871" y="187"/>
      <point x="654" y="-40"/>
      <point x="389" y="-40" type="curve" smooth="yes"/>
      <point x="187" y="-40"/>
      <point x="60" y="92"/>
    </contour>
  </outline>
</glyph>
<glyph name="uni2777" format="2">
  <advance width="888"/>
  <unicode hex="2777"/>
  <note>
uni2777
</note>
  <outline>
    <contour>
      <point x="434" y="352" type="curve" smooth="yes"/>
      <point x="323" y="265" type="line"/>
      <point x="304" y="173" type="line"/>
      <point x="558" y="173" type="line"/>
      <point x="579" y="272" type="line"/>
      <point x="469" y="272" type="line"/>
      <point x="516" y="314" type="line" smooth="yes"/>
      <point x="584" y="377"/>
      <point x="616" y="395"/>
      <point x="616" y="452" type="curve" smooth="yes"/>
      <point x="616" y="501"/>
      <point x="586" y="536"/>
      <point x="511" y="536" type="curve" smooth="yes"/>
      <point x="462" y="536"/>
      <point x="379" y="526"/>
      <point x="379" y="526" type="curve"/>
      <point x="363" y="424" type="line"/>
      <point x="363" y="424"/>
      <point x="425" y="430"/>
      <point x="450" y="430" type="curve" smooth="yes"/>
      <point x="477" y="430"/>
      <point x="484" y="423"/>
      <point x="484" y="410" type="curve" smooth="yes"/>
      <point x="484" y="392"/>
      <point x="468" y="380"/>
    </contour>
    <contour>
      <point x="58" y="274" type="curve" smooth="yes"/>
      <point x="56" y="510"/>
      <point x="269" y="740"/>
      <point x="538" y="740" type="curve" smooth="yes"/>
      <point x="742" y="740"/>
      <point x="871" y="606"/>
      <point x="871" y="423" type="curve" smooth="yes"/>
      <point x="871" y="187"/>
      <point x="654" y="-40"/>
      <point x="389" y="-40" type="curve" smooth="yes"/>
      <point x="187" y="-40"/>
      <point x="60" y="92"/>
    </contour>
  </outline>
</glyph>
<glyph name="uni2778" format="2">
  <advance width="888"/>
  <unicode hex="2778"/>
  <note>
uni2778
</note>
  <outline>
    <contour>
      <point x="370" y="531" type="curve"/>
      <point x="356" y="433" type="line"/>
      <point x="356" y="433"/>
      <point x="411" y="439"/>
      <point x="451" y="439" type="curve" smooth="yes"/>
      <point x="467" y="439"/>
      <point x="478" y="437"/>
      <point x="478" y="421" type="curve" smooth="yes"/>
      <point x="478" y="408"/>
      <point x="468" y="398"/>
      <point x="451" y="398" type="curve" smooth="yes"/>
      <point x="379" y="398" type="line"/>
      <point x="361" y="318" type="line"/>
      <point x="436" y="318" type="line" smooth="yes"/>
      <point x="453" y="318"/>
      <point x="459" y="313"/>
      <point x="459" y="294" type="curve" smooth="yes"/>
      <point x="459" y="272"/>
      <point x="448" y="264"/>
      <point x="422" y="264" type="curve" smooth="yes"/>
      <point x="385" y="264"/>
      <point x="319" y="270"/>
      <point x="319" y="270" type="curve"/>
      <point x="292" y="171" type="line"/>
      <point x="292" y="171"/>
      <point x="374" y="163"/>
      <point x="420" y="163" type="curve" smooth="yes"/>
      <point x="523" y="163"/>
      <point x="583" y="203"/>
      <point x="583" y="289" type="curve" smooth="yes"/>
      <point x="583" y="330"/>
      <point x="569" y="354"/>
      <point x="526" y="365" type="curve"/>
      <point x="583" y="380"/>
      <point x="604" y="418"/>
      <point x="604" y="461" type="curve" smooth="yes"/>
      <point x="604" y="512"/>
      <point x="571" y="541"/>
      <point x="491" y="541" type="curve" smooth="yes"/>
      <point x="444" y="541"/>
      <point x="370" y="531"/>
    </contour>
    <contour>
      <point x="58" y="274" type="curve" smooth="yes"/>
      <point x="56" y="510"/>
      <point x="269" y="740"/>
      <point x="538" y="740" type="curve" smooth="yes"/>
      <point x="742" y="740"/>
      <point x="871" y="606"/>
      <point x="871" y="423" type="curve" smooth="yes"/>
      <point x="871" y="187"/>
      <point x="654" y="-40"/>
      <point x="389" y="-40" type="curve" smooth="yes"/>
      <point x="187" y="-40"/>
      <point x="60" y="92"/>
    </contour>
  </outline>
</glyph>
<glyph name="uni2779" format="2">
  <advance width="888"/>
  <unicode hex="2779"/>
  <note>
uni2779
</note>
  <outline>
    <contour>
      <point x="315" y="324" type="line"/>
      <point x="295" y="227" type="line"/>
      <point x="442" y="227" type="line"/>
      <point x="431" y="173" type="line"/>
      <point x="535" y="173" type="line"/>
      <point x="546" y="227" type="line"/>
      <point x="572" y="227" type="line"/>
      <point x="593" y="326" type="line"/>
      <point x="567" y="326" type="line"/>
      <point x="585" y="423" type="line"/>
      <point x="501" y="423" type="line"/>
      <point x="466" y="326" type="line"/>
      <point x="415" y="326" type="line"/>
      <point x="532" y="526" type="line"/>
      <point x="402" y="526" type="line"/>
    </contour>
    <contour>
      <point x="58" y="274" type="curve" smooth="yes"/>
      <point x="56" y="510"/>
      <point x="269" y="740"/>
      <point x="538" y="740" type="curve" smooth="yes"/>
      <point x="742" y="740"/>
      <point x="871" y="606"/>
      <point x="871" y="423" type="curve" smooth="yes"/>
      <point x="871" y="187"/>
      <point x="654" y="-40"/>
      <point x="389" y="-40" type="curve" smooth="yes"/>
      <point x="187" y="-40"/>
      <point x="60" y="92"/>
    </contour>
  </outline>
</glyph>
<glyph name="uni277A" format="2">
  <advance width="888"/>
  <unicode hex="277A"/>
  <note>
uni277A
</note>
  <outline>
    <contour>
      <point x="459" y="438" type="line"/>
      <point x="595" y="438" type="line"/>
      <point x="615" y="531" type="line"/>
      <point x="388" y="531" type="line"/>
      <point x="331" y="324" type="line"/>
      <point x="404" y="312" type="line"/>
      <point x="404" y="312"/>
      <point x="429" y="320"/>
      <point x="446" y="320" type="curve" smooth="yes"/>
      <point x="459" y="320"/>
      <point x="468" y="316"/>
      <point x="468" y="297" type="curve" smooth="yes"/>
      <point x="468" y="269"/>
      <point x="451" y="261"/>
      <point x="427" y="261" type="curve" smooth="yes"/>
      <point x="388" y="261"/>
      <point x="323" y="268"/>
      <point x="323" y="268" type="curve"/>
      <point x="294" y="178" type="line"/>
      <point x="294" y="178"/>
      <point x="363" y="163"/>
      <point x="421" y="163" type="curve" smooth="yes"/>
      <point x="537" y="163"/>
      <point x="589" y="233"/>
      <point x="589" y="322" type="curve" smooth="yes"/>
      <point x="589" y="372"/>
      <point x="556" y="400"/>
      <point x="500" y="400" type="curve" smooth="yes"/>
      <point x="473" y="400"/>
      <point x="441" y="393"/>
      <point x="441" y="393" type="curve"/>
    </contour>
    <contour>
      <point x="58" y="274" type="curve" smooth="yes"/>
      <point x="56" y="510"/>
      <point x="269" y="740"/>
      <point x="538" y="740" type="curve" smooth="yes"/>
      <point x="742" y="740"/>
      <point x="871" y="606"/>
      <point x="871" y="423" type="curve" smooth="yes"/>
      <point x="871" y="187"/>
      <point x="654" y="-40"/>
      <point x="389" y="-40" type="curve" smooth="yes"/>
      <point x="187" y="-40"/>
      <point x="60" y="92"/>
    </contour>
  </outline>
</glyph>
<glyph name="uni277B" format="2">
  <advance width="888"/>
  <unicode hex="277B"/>
  <note>
uni277B
</note>
  <outline>
    <contour>
      <point x="600" y="432" type="curve"/>
      <point x="627" y="528" type="line"/>
      <point x="627" y="528"/>
      <point x="566" y="541"/>
      <point x="513" y="541" type="curve" smooth="yes"/>
      <point x="356" y="541"/>
      <point x="305" y="417"/>
      <point x="305" y="292" type="curve" smooth="yes"/>
      <point x="305" y="212"/>
      <point x="344" y="163"/>
      <point x="443" y="163" type="curve" smooth="yes"/>
      <point x="524" y="163"/>
      <point x="598" y="213"/>
      <point x="598" y="311" type="curve" smooth="yes"/>
      <point x="598" y="361"/>
      <point x="562" y="393"/>
      <point x="509" y="393" type="curve" smooth="yes"/>
      <point x="463" y="393"/>
      <point x="439" y="378"/>
      <point x="439" y="378" type="curve"/>
      <point x="448" y="428"/>
      <point x="458" y="439"/>
      <point x="495" y="439" type="curve" smooth="yes"/>
      <point x="517" y="439"/>
      <point x="600" y="432"/>
    </contour>
    <contour>
      <point x="58" y="274" type="curve" smooth="yes"/>
      <point x="56" y="510"/>
      <point x="269" y="740"/>
      <point x="538" y="740" type="curve" smooth="yes"/>
      <point x="742" y="740"/>
      <point x="871" y="606"/>
      <point x="871" y="423" type="curve" smooth="yes"/>
      <point x="871" y="187"/>
      <point x="654" y="-40"/>
      <point x="389" y="-40" type="curve" smooth="yes"/>
      <point x="187" y="-40"/>
      <point x="60" y="92"/>
    </contour>
    <contour>
      <point x="421" y="283" type="curve" smooth="yes"/>
      <point x="421" y="290"/>
      <point x="422" y="298"/>
      <point x="424" y="308" type="curve"/>
      <point x="424" y="308"/>
      <point x="435" y="318"/>
      <point x="455" y="318" type="curve" smooth="yes"/>
      <point x="468" y="318"/>
      <point x="478" y="314"/>
      <point x="478" y="298" type="curve" smooth="yes"/>
      <point x="478" y="279"/>
      <point x="466" y="257"/>
      <point x="443" y="257" type="curve" smooth="yes"/>
      <point x="427" y="257"/>
      <point x="421" y="266"/>
    </contour>
  </outline>
</glyph>
<glyph name="uni277C" format="2">
  <advance width="888"/>
  <unicode hex="277C"/>
  <note>
uni277C
</note>
  <outline>
    <contour>
      <point x="614" y="424" type="line"/>
      <point x="635" y="526" type="line"/>
      <point x="374" y="526" type="line"/>
      <point x="352" y="422" type="line"/>
      <point x="476" y="422" type="line"/>
      <point x="473" y="405" type="line"/>
      <point x="330" y="190" type="line"/>
      <point x="427" y="147" type="line"/>
    </contour>
    <contour>
      <point x="58" y="274" type="curve" smooth="yes"/>
      <point x="56" y="510"/>
      <point x="269" y="740"/>
      <point x="538" y="740" type="curve" smooth="yes"/>
      <point x="742" y="740"/>
      <point x="871" y="606"/>
      <point x="871" y="423" type="curve" smooth="yes"/>
      <point x="871" y="187"/>
      <point x="654" y="-40"/>
      <point x="389" y="-40" type="curve" smooth="yes"/>
      <point x="187" y="-40"/>
      <point x="60" y="92"/>
    </contour>
  </outline>
</glyph>
<glyph name="uni277D" format="2">
  <advance width="888"/>
  <unicode hex="277D"/>
  <note>
uni277D
</note>
  <outline>
    <contour>
      <point x="496" y="541" type="curve" smooth="yes"/>
      <point x="412" y="541"/>
      <point x="342" y="500"/>
      <point x="342" y="422" type="curve" smooth="yes"/>
      <point x="342" y="396"/>
      <point x="355" y="377"/>
      <point x="370" y="357" type="curve"/>
      <point x="340" y="343"/>
      <point x="304" y="316"/>
      <point x="304" y="259" type="curve" smooth="yes"/>
      <point x="304" y="200"/>
      <point x="349" y="163"/>
      <point x="439" y="163" type="curve" smooth="yes"/>
      <point x="545" y="163"/>
      <point x="604" y="212"/>
      <point x="604" y="294" type="curve" smooth="yes"/>
      <point x="604" y="325"/>
      <point x="584" y="347"/>
      <point x="565" y="357" type="curve"/>
      <point x="590" y="376"/>
      <point x="619" y="402"/>
      <point x="619" y="450" type="curve" smooth="yes"/>
      <point x="619" y="496"/>
      <point x="586" y="541"/>
    </contour>
    <contour>
      <point x="58" y="274" type="curve" smooth="yes"/>
      <point x="56" y="510"/>
      <point x="269" y="740"/>
      <point x="538" y="740" type="curve" smooth="yes"/>
      <point x="742" y="740"/>
      <point x="871" y="606"/>
      <point x="871" y="423" type="curve" smooth="yes"/>
      <point x="871" y="187"/>
      <point x="654" y="-40"/>
      <point x="389" y="-40" type="curve" smooth="yes"/>
      <point x="187" y="-40"/>
      <point x="60" y="92"/>
    </contour>
    <contour>
      <point x="419" y="283" type="curve" smooth="yes"/>
      <point x="419" y="299"/>
      <point x="429" y="311"/>
      <point x="445" y="319" type="curve"/>
      <point x="477" y="319" type="line"/>
      <point x="484" y="313"/>
      <point x="489" y="306"/>
      <point x="489" y="296" type="curve" smooth="yes"/>
      <point x="489" y="275"/>
      <point x="477" y="259"/>
      <point x="450" y="259" type="curve" smooth="yes"/>
      <point x="429" y="259"/>
      <point x="419" y="269"/>
    </contour>
    <contour>
      <point x="447" y="412" type="curve" smooth="yes"/>
      <point x="447" y="432"/>
      <point x="461" y="448"/>
      <point x="485" y="448" type="curve" smooth="yes"/>
      <point x="504" y="448"/>
      <point x="514" y="438"/>
      <point x="514" y="426" type="curve" smooth="yes"/>
      <point x="514" y="409"/>
      <point x="501" y="397"/>
      <point x="490" y="391" type="curve"/>
      <point x="458" y="391" type="line"/>
      <point x="451" y="395"/>
      <point x="447" y="404"/>
    </contour>
  </outline>
</glyph>
<glyph name="uni277E" format="2">
  <advance width="888"/>
  <unicode hex="277E"/>
  <note>
uni277E
</note>
  <outline>
    <contour>
      <point x="327" y="272" type="curve"/>
      <point x="299" y="176" type="line"/>
      <point x="299" y="176"/>
      <point x="371" y="163"/>
      <point x="424" y="163" type="curve" smooth="yes"/>
      <point x="572" y="163"/>
      <point x="621" y="294"/>
      <point x="621" y="415" type="curve" smooth="yes"/>
      <point x="621" y="503"/>
      <point x="568" y="541"/>
      <point x="479" y="541" type="curve" smooth="yes"/>
      <point x="385" y="541"/>
      <point x="329" y="478"/>
      <point x="329" y="398" type="curve" smooth="yes"/>
      <point x="329" y="349"/>
      <point x="364" y="316"/>
      <point x="418" y="316" type="curve" smooth="yes"/>
      <point x="463" y="316"/>
      <point x="486" y="330"/>
      <point x="486" y="330" type="curve"/>
      <point x="479" y="284"/>
      <point x="468" y="265"/>
      <point x="430" y="265" type="curve" smooth="yes"/>
      <point x="408" y="265"/>
      <point x="327" y="272"/>
    </contour>
    <contour>
      <point x="58" y="274" type="curve" smooth="yes"/>
      <point x="56" y="510"/>
      <point x="269" y="740"/>
      <point x="538" y="740" type="curve" smooth="yes"/>
      <point x="742" y="740"/>
      <point x="871" y="606"/>
      <point x="871" y="423" type="curve" smooth="yes"/>
      <point x="871" y="187"/>
      <point x="654" y="-40"/>
      <point x="389" y="-40" type="curve" smooth="yes"/>
      <point x="187" y="-40"/>
      <point x="60" y="92"/>
    </contour>
    <contour>
      <point x="449" y="415" type="curve" smooth="yes"/>
      <point x="449" y="433"/>
      <point x="458" y="451"/>
      <point x="481" y="451" type="curve" smooth="yes"/>
      <point x="496" y="451"/>
      <point x="506" y="442"/>
      <point x="506" y="426" type="curve" smooth="yes"/>
      <point x="506" y="418"/>
      <point x="505" y="410"/>
      <point x="503" y="400" type="curve"/>
      <point x="503" y="400"/>
      <point x="492" y="390"/>
      <point x="472" y="390" type="curve" smooth="yes"/>
      <point x="458" y="390"/>
      <point x="449" y="398"/>
    </contour>
  </outline>
</glyph>
<glyph name="uni2B1C" format="2">
  <advance width="1183"/>
  <unicode hex="2B1C"/>
  <note>
uni2B1C
</note>
  <outline>
    <contour>
      <point x="-79" y="-230" type="line"/>
      <point x="163" y="904" type="line"/>
      <point x="1297" y="904" type="line"/>
      <point x="1055" y="-230" type="line"/>
    </contour>
    <contour>
      <point x="242" y="808" type="line"/>
      <point x="42" y="-134" type="line"/>
      <point x="976" y="-134" type="line"/>
      <point x="1176" y="808" type="line"/>
    </contour>
  </outline>
</glyph>
<glyph name="A.ss03" format="2">
  <advance width="1275"/>
  <note>
A.ss03
</note>
  <outline>
    <contour>
      <point x="547" y="-271" type="curve" smooth="yes"/>
      <point x="974" y="-271"/>
      <point x="1275" y="76"/>
      <point x="1275" y="440" type="curve" smooth="yes"/>
      <point x="1275" y="750"/>
      <point x="1074" y="938"/>
      <point x="757" y="938" type="curve" smooth="yes"/>
      <point x="325" y="938"/>
      <point x="33" y="583"/>
      <point x="33" y="226" type="curve" smooth="yes"/>
      <point x="33" y="-83"/>
      <point x="243" y="-271"/>
    </contour>
    <contour>
      <point x="160" y="220" type="curve" smooth="yes"/>
      <point x="160" y="526"/>
      <point x="387" y="820"/>
      <point x="757" y="820" type="curve" smooth="yes"/>
      <point x="1000" y="820"/>
      <point x="1148" y="681"/>
      <point x="1148" y="444" type="curve" smooth="yes"/>
      <point x="1148" y="147"/>
      <point x="927" y="-153"/>
      <point x="550" y="-153" type="curve" smooth="yes"/>
      <point x="308" y="-153"/>
      <point x="160" y="-14"/>
    </contour>
    <contour>
      <point x="625" y="710" type="line"/>
      <point x="275" y="0" type="line"/>
      <point x="414" y="0" type="line"/>
      <point x="487" y="158" type="line"/>
      <point x="731" y="158" type="line"/>
      <point x="731" y="0" type="line"/>
      <point x="865" y="0" type="line"/>
      <point x="865" y="710" type="line"/>
    </contour>
    <contour>
      <point x="731" y="278" type="line"/>
      <point x="544" y="278" type="line"/>
      <point x="701" y="596" type="line"/>
      <point x="731" y="596" type="line"/>
    </contour>
  </outline>
</glyph>
<glyph name="A.ss04" format="2">
  <advance width="1266"/>
  <note>
A.ss04
</note>
  <outline>
    <contour>
      <point x="525" y="-271" type="curve" smooth="yes"/>
      <point x="226" y="-271"/>
      <point x="29" y="-86"/>
      <point x="29" y="207" type="curve" smooth="yes"/>
      <point x="29" y="580"/>
      <point x="346" y="938"/>
      <point x="772" y="938" type="curve" smooth="yes"/>
      <point x="1077" y="938"/>
      <point x="1271" y="747"/>
      <point x="1271" y="459" type="curve" smooth="yes"/>
      <point x="1271" y="85"/>
      <point x="947" y="-271"/>
    </contour>
    <contour>
      <point x="625" y="710" type="line"/>
      <point x="275" y="0" type="line"/>
      <point x="414" y="0" type="line"/>
      <point x="487" y="158" type="line"/>
      <point x="731" y="158" type="line"/>
      <point x="731" y="0" type="line"/>
      <point x="865" y="0" type="line"/>
      <point x="865" y="710" type="line"/>
    </contour>
    <contour>
      <point x="731" y="278" type="line"/>
      <point x="544" y="278" type="line"/>
      <point x="701" y="596" type="line"/>
      <point x="731" y="596" type="line"/>
    </contour>
  </outline>
</glyph>
<glyph name="A.ss05" format="2">
  <advance width="1222"/>
  <note>
A.ss05
</note>
  <outline>
    <contour>
      <point x="-79" y="-230" type="line"/>
      <point x="163" y="904" type="line"/>
      <point x="1297" y="904" type="line"/>
      <point x="1055" y="-230" type="line"/>
    </contour>
    <contour>
      <point x="242" y="808" type="line"/>
      <point x="42" y="-134" type="line"/>
      <point x="976" y="-134" type="line"/>
      <point x="1176" y="808" type="line"/>
    </contour>
    <contour>
      <point x="605" y="710" type="line"/>
      <point x="255" y="0" type="line"/>
      <point x="394" y="0" type="line"/>
      <point x="467" y="158" type="line"/>
      <point x="711" y="158" type="line"/>
      <point x="711" y="0" type="line"/>
      <point x="845" y="0" type="line"/>
      <point x="845" y="710" type="line"/>
    </contour>
    <contour>
      <point x="711" y="278" type="line"/>
      <point x="524" y="278" type="line"/>
      <point x="681" y="596" type="line"/>
      <point x="711" y="596" type="line"/>
    </contour>
  </outline>
</glyph>
<glyph name="B.ss03" format="2">
  <advance width="1275"/>
  <note>
B.ss03
</note>
  <outline>
    <contour>
      <point x="547" y="-271" type="curve" smooth="yes"/>
      <point x="974" y="-271"/>
      <point x="1275" y="76"/>
      <point x="1275" y="440" type="curve" smooth="yes"/>
      <point x="1275" y="750"/>
      <point x="1074" y="938"/>
      <point x="757" y="938" type="curve" smooth="yes"/>
      <point x="325" y="938"/>
      <point x="33" y="583"/>
      <point x="33" y="226" type="curve" smooth="yes"/>
      <point x="33" y="-83"/>
      <point x="243" y="-271"/>
    </contour>
    <contour>
      <point x="160" y="220" type="curve" smooth="yes"/>
      <point x="160" y="526"/>
      <point x="387" y="820"/>
      <point x="757" y="820" type="curve" smooth="yes"/>
      <point x="1000" y="820"/>
      <point x="1148" y="681"/>
      <point x="1148" y="444" type="curve" smooth="yes"/>
      <point x="1148" y="147"/>
      <point x="927" y="-153"/>
      <point x="550" y="-153" type="curve" smooth="yes"/>
      <point x="308" y="-153"/>
      <point x="160" y="-14"/>
    </contour>
    <contour>
      <point x="512" y="710" type="line"/>
      <point x="360" y="0" type="line"/>
      <point x="659" y="0" type="line" smooth="yes"/>
      <point x="851" y="0"/>
      <point x="906" y="121"/>
      <point x="906" y="225" type="curve" smooth="yes"/>
      <point x="906" y="305"/>
      <point x="868" y="347"/>
      <point x="822" y="362" type="curve"/>
      <point x="913" y="387"/>
      <point x="953" y="463"/>
      <point x="953" y="538" type="curve" smooth="yes"/>
      <point x="953" y="653"/>
      <point x="881" y="710"/>
      <point x="769" y="710" type="curve" smooth="yes"/>
    </contour>
    <contour>
      <point x="650" y="118" type="curve" smooth="yes"/>
      <point x="520" y="118" type="line"/>
      <point x="558" y="301" type="line"/>
      <point x="696" y="301" type="line" smooth="yes"/>
      <point x="740" y="301"/>
      <point x="766" y="280"/>
      <point x="766" y="221" type="curve" smooth="yes"/>
      <point x="766" y="160"/>
      <point x="735" y="118"/>
    </contour>
    <contour>
      <point x="715" y="417" type="curve" smooth="yes"/>
      <point x="585" y="417" type="line"/>
      <point x="622" y="592" type="line"/>
      <point x="742" y="592" type="line" smooth="yes"/>
      <point x="793" y="592"/>
      <point x="816" y="568"/>
      <point x="816" y="511" type="curve" smooth="yes"/>
      <point x="816" y="463"/>
      <point x="784" y="417"/>
    </contour>
  </outline>
</glyph>
<glyph name="B.ss04" format="2">
  <advance width="1266"/>
  <note>
B.ss04
</note>
  <outline>
    <contour>
      <point x="769" y="710" type="curve" smooth="yes"/>
      <point x="512" y="710" type="line"/>
      <point x="360" y="0" type="line"/>
      <point x="659" y="0" type="line" smooth="yes"/>
      <point x="851" y="0"/>
      <point x="906" y="121"/>
      <point x="906" y="225" type="curve" smooth="yes"/>
      <point x="906" y="305"/>
      <point x="868" y="347"/>
      <point x="822" y="362" type="curve"/>
      <point x="913" y="387"/>
      <point x="953" y="463"/>
      <point x="953" y="538" type="curve" smooth="yes"/>
      <point x="953" y="653"/>
      <point x="881" y="710"/>
    </contour>
    <contour>
      <point x="29" y="207" type="curve" smooth="yes"/>
      <point x="29" y="580"/>
      <point x="346" y="938"/>
      <point x="772" y="938" type="curve" smooth="yes"/>
      <point x="1077" y="938"/>
      <point x="1271" y="747"/>
      <point x="1271" y="459" type="curve" smooth="yes"/>
      <point x="1271" y="85"/>
      <point x="947" y="-271"/>
      <point x="525" y="-271" type="curve" smooth="yes"/>
      <point x="226" y="-271"/>
      <point x="29" y="-86"/>
    </contour>
    <contour>
      <point x="650" y="118" type="curve" smooth="yes"/>
      <point x="520" y="118" type="line"/>
      <point x="558" y="301" type="line"/>
      <point x="696" y="301" type="line" smooth="yes"/>
      <point x="740" y="301"/>
      <point x="766" y="280"/>
      <point x="766" y="221" type="curve" smooth="yes"/>
      <point x="766" y="160"/>
      <point x="735" y="118"/>
    </contour>
    <contour>
      <point x="715" y="417" type="curve" smooth="yes"/>
      <point x="585" y="417" type="line"/>
      <point x="622" y="592" type="line"/>
      <point x="742" y="592" type="line" smooth="yes"/>
      <point x="793" y="592"/>
      <point x="816" y="568"/>
      <point x="816" y="511" type="curve" smooth="yes"/>
      <point x="816" y="463"/>
      <point x="784" y="417"/>
    </contour>
  </outline>
</glyph>
<glyph name="C.ss03" format="2">
  <advance width="1275"/>
  <note>
C.ss03
</note>
  <outline>
    <contour>
      <point x="547" y="-271" type="curve" smooth="yes"/>
      <point x="974" y="-271"/>
      <point x="1275" y="76"/>
      <point x="1275" y="440" type="curve" smooth="yes"/>
      <point x="1275" y="750"/>
      <point x="1074" y="938"/>
      <point x="757" y="938" type="curve" smooth="yes"/>
      <point x="325" y="938"/>
      <point x="33" y="583"/>
      <point x="33" y="226" type="curve" smooth="yes"/>
      <point x="33" y="-83"/>
      <point x="243" y="-271"/>
    </contour>
    <contour>
      <point x="160" y="220" type="curve" smooth="yes"/>
      <point x="160" y="526"/>
      <point x="387" y="820"/>
      <point x="757" y="820" type="curve" smooth="yes"/>
      <point x="1000" y="820"/>
      <point x="1148" y="681"/>
      <point x="1148" y="444" type="curve" smooth="yes"/>
      <point x="1148" y="147"/>
      <point x="927" y="-153"/>
      <point x="550" y="-153" type="curve" smooth="yes"/>
      <point x="308" y="-153"/>
      <point x="160" y="-14"/>
    </contour>
    <contour>
      <point x="360" y="198" type="curve" smooth="yes"/>
      <point x="360" y="30"/>
      <point x="433" y="-14"/>
      <point x="602" y="-14" type="curve" smooth="yes"/>
      <point x="652" y="-14"/>
      <point x="720" y="-7"/>
      <point x="767" y="0" type="curve"/>
      <point x="788" y="118" type="line"/>
      <point x="748" y="112"/>
      <point x="673" y="108"/>
      <point x="625" y="108" type="curve" smooth="yes"/>
      <point x="543" y="108"/>
      <point x="502" y="122"/>
      <point x="502" y="200" type="curve" smooth="yes"/>
      <point x="502" y="309"/>
      <point x="555" y="604"/>
      <point x="726" y="604" type="curve" smooth="yes"/>
      <point x="758" y="604"/>
      <point x="838" y="596"/>
      <point x="882" y="589" type="curve"/>
      <point x="909" y="699" type="line"/>
      <point x="870" y="709"/>
      <point x="798" y="726"/>
      <point x="730" y="726" type="curve" smooth="yes"/>
      <point x="442" y="726"/>
      <point x="360" y="364"/>
    </contour>
  </outline>
</glyph>
<glyph name="C.ss04" format="2">
  <advance width="1266"/>
  <note>
C.ss04
</note>
  <outline>
    <contour>
      <point x="525" y="-271" type="curve" smooth="yes"/>
      <point x="226" y="-271"/>
      <point x="29" y="-86"/>
      <point x="29" y="207" type="curve" smooth="yes"/>
      <point x="29" y="580"/>
      <point x="346" y="938"/>
      <point x="772" y="938" type="curve" smooth="yes"/>
      <point x="1077" y="938"/>
      <point x="1271" y="747"/>
      <point x="1271" y="459" type="curve" smooth="yes"/>
      <point x="1271" y="85"/>
      <point x="947" y="-271"/>
    </contour>
    <contour>
      <point x="360" y="198" type="curve" smooth="yes"/>
      <point x="360" y="30"/>
      <point x="433" y="-14"/>
      <point x="602" y="-14" type="curve" smooth="yes"/>
      <point x="652" y="-14"/>
      <point x="720" y="-7"/>
      <point x="767" y="0" type="curve"/>
      <point x="788" y="118" type="line"/>
      <point x="748" y="112"/>
      <point x="673" y="108"/>
      <point x="625" y="108" type="curve" smooth="yes"/>
      <point x="543" y="108"/>
      <point x="502" y="122"/>
      <point x="502" y="200" type="curve" smooth="yes"/>
      <point x="502" y="309"/>
      <point x="555" y="604"/>
      <point x="726" y="604" type="curve" smooth="yes"/>
      <point x="758" y="604"/>
      <point x="838" y="596"/>
      <point x="882" y="589" type="curve"/>
      <point x="909" y="699" type="line"/>
      <point x="870" y="709"/>
      <point x="798" y="726"/>
      <point x="730" y="726" type="curve" smooth="yes"/>
      <point x="442" y="726"/>
      <point x="360" y="364"/>
    </contour>
  </outline>
</glyph>
<glyph name="C.ss05" format="2">
  <advance width="1222"/>
  <note>
C.ss05
</note>
  <outline>
    <contour>
      <point x="-79" y="-230" type="line"/>
      <point x="163" y="904" type="line"/>
      <point x="1297" y="904" type="line"/>
      <point x="1055" y="-230" type="line"/>
    </contour>
    <contour>
      <point x="242" y="808" type="line"/>
      <point x="42" y="-134" type="line"/>
      <point x="976" y="-134" type="line"/>
      <point x="1176" y="808" type="line"/>
    </contour>
    <contour>
      <point x="361" y="198" type="curve" smooth="yes"/>
      <point x="361" y="30"/>
      <point x="434" y="-14"/>
      <point x="603" y="-14" type="curve" smooth="yes"/>
      <point x="653" y="-14"/>
      <point x="721" y="-7"/>
      <point x="768" y="0" type="curve"/>
      <point x="789" y="118" type="line"/>
      <point x="749" y="112"/>
      <point x="674" y="108"/>
      <point x="626" y="108" type="curve" smooth="yes"/>
      <point x="544" y="108"/>
      <point x="503" y="122"/>
      <point x="503" y="200" type="curve" smooth="yes"/>
      <point x="503" y="309"/>
      <point x="556" y="604"/>
      <point x="727" y="604" type="curve" smooth="yes"/>
      <point x="759" y="604"/>
      <point x="839" y="596"/>
      <point x="883" y="589" type="curve"/>
      <point x="910" y="699" type="line"/>
      <point x="871" y="709"/>
      <point x="799" y="726"/>
      <point x="731" y="726" type="curve" smooth="yes"/>
      <point x="443" y="726"/>
      <point x="361" y="364"/>
    </contour>
  </outline>
</glyph>
<glyph name="D.ss03" format="2">
  <advance width="1275"/>
  <note>
D.ss03
</note>
  <outline>
    <contour>
      <point x="547" y="-271" type="curve" smooth="yes"/>
      <point x="974" y="-271"/>
      <point x="1275" y="76"/>
      <point x="1275" y="440" type="curve" smooth="yes"/>
      <point x="1275" y="750"/>
      <point x="1074" y="938"/>
      <point x="757" y="938" type="curve" smooth="yes"/>
      <point x="325" y="938"/>
      <point x="33" y="583"/>
      <point x="33" y="226" type="curve" smooth="yes"/>
      <point x="33" y="-83"/>
      <point x="243" y="-271"/>
    </contour>
    <contour>
      <point x="160" y="220" type="curve" smooth="yes"/>
      <point x="160" y="526"/>
      <point x="387" y="820"/>
      <point x="757" y="820" type="curve" smooth="yes"/>
      <point x="1000" y="820"/>
      <point x="1148" y="681"/>
      <point x="1148" y="444" type="curve" smooth="yes"/>
      <point x="1148" y="147"/>
      <point x="927" y="-153"/>
      <point x="550" y="-153" type="curve" smooth="yes"/>
      <point x="308" y="-153"/>
      <point x="160" y="-14"/>
    </contour>
    <contour>
      <point x="514" y="710" type="line"/>
      <point x="362" y="0" type="line"/>
      <point x="623" y="0" type="line" smooth="yes"/>
      <point x="896" y="0"/>
      <point x="974" y="300"/>
      <point x="974" y="485" type="curve" smooth="yes"/>
      <point x="974" y="627"/>
      <point x="908" y="710"/>
      <point x="747" y="710" type="curve" smooth="yes"/>
    </contour>
    <contour>
      <point x="613" y="120" type="curve" smooth="yes"/>
      <point x="525" y="120" type="line"/>
      <point x="625" y="590" type="line"/>
      <point x="714" y="590" type="line" smooth="yes"/>
      <point x="795" y="590"/>
      <point x="832" y="560"/>
      <point x="832" y="472" type="curve" smooth="yes"/>
      <point x="832" y="362"/>
      <point x="781" y="120"/>
    </contour>
  </outline>
</glyph>
<glyph name="D.ss04" format="2">
  <advance width="1266"/>
  <note>
D.ss04
</note>
  <outline>
    <contour>
      <point x="525" y="-271" type="curve" smooth="yes"/>
      <point x="226" y="-271"/>
      <point x="29" y="-86"/>
      <point x="29" y="207" type="curve" smooth="yes"/>
      <point x="29" y="580"/>
      <point x="346" y="938"/>
      <point x="772" y="938" type="curve" smooth="yes"/>
      <point x="1077" y="938"/>
      <point x="1271" y="747"/>
      <point x="1271" y="459" type="curve" smooth="yes"/>
      <point x="1271" y="85"/>
      <point x="947" y="-271"/>
    </contour>
    <contour>
      <point x="514" y="710" type="line"/>
      <point x="362" y="0" type="line"/>
      <point x="623" y="0" type="line" smooth="yes"/>
      <point x="896" y="0"/>
      <point x="974" y="300"/>
      <point x="974" y="485" type="curve" smooth="yes"/>
      <point x="974" y="627"/>
      <point x="908" y="710"/>
      <point x="747" y="710" type="curve" smooth="yes"/>
    </contour>
    <contour>
      <point x="613" y="120" type="curve" smooth="yes"/>
      <point x="525" y="120" type="line"/>
      <point x="625" y="590" type="line"/>
      <point x="714" y="590" type="line" smooth="yes"/>
      <point x="795" y="590"/>
      <point x="832" y="560"/>
      <point x="832" y="472" type="curve" smooth="yes"/>
      <point x="832" y="362"/>
      <point x="781" y="120"/>
    </contour>
  </outline>
</glyph>
<glyph name="E.ss03" format="2">
  <advance width="1275"/>
  <note>
E.ss03
</note>
  <outline>
    <contour>
      <point x="547" y="-271" type="curve" smooth="yes"/>
      <point x="974" y="-271"/>
      <point x="1275" y="76"/>
      <point x="1275" y="440" type="curve" smooth="yes"/>
      <point x="1275" y="750"/>
      <point x="1074" y="938"/>
      <point x="757" y="938" type="curve" smooth="yes"/>
      <point x="325" y="938"/>
      <point x="33" y="583"/>
      <point x="33" y="226" type="curve" smooth="yes"/>
      <point x="33" y="-83"/>
      <point x="243" y="-271"/>
    </contour>
    <contour>
      <point x="160" y="220" type="curve" smooth="yes"/>
      <point x="160" y="526"/>
      <point x="387" y="820"/>
      <point x="757" y="820" type="curve" smooth="yes"/>
      <point x="1000" y="820"/>
      <point x="1148" y="681"/>
      <point x="1148" y="444" type="curve" smooth="yes"/>
      <point x="1148" y="147"/>
      <point x="927" y="-153"/>
      <point x="550" y="-153" type="curve" smooth="yes"/>
      <point x="308" y="-153"/>
      <point x="160" y="-14"/>
    </contour>
    <contour>
      <point x="508" y="710" type="line"/>
      <point x="357" y="0" type="line"/>
      <point x="790" y="0" type="line"/>
      <point x="815" y="120" type="line"/>
      <point x="519" y="120" type="line"/>
      <point x="557" y="297" type="line"/>
      <point x="795" y="297" type="line"/>
      <point x="820" y="415" type="line"/>
      <point x="582" y="415" type="line"/>
      <point x="619" y="590" type="line"/>
      <point x="915" y="590" type="line"/>
      <point x="940" y="710" type="line"/>
    </contour>
  </outline>
</glyph>
<glyph name="E.ss04" format="2">
  <advance width="1266"/>
  <note>
E.ss04
</note>
  <outline>
    <contour>
      <point x="915" y="590" type="line"/>
      <point x="940" y="710" type="line"/>
      <point x="508" y="710" type="line"/>
      <point x="357" y="0" type="line"/>
      <point x="790" y="0" type="line"/>
      <point x="815" y="120" type="line"/>
      <point x="519" y="120" type="line"/>
      <point x="557" y="297" type="line"/>
      <point x="795" y="297" type="line"/>
      <point x="820" y="415" type="line"/>
      <point x="582" y="415" type="line"/>
      <point x="619" y="590" type="line"/>
    </contour>
    <contour>
      <point x="29" y="207" type="curve" smooth="yes"/>
      <point x="29" y="580"/>
      <point x="346" y="938"/>
      <point x="772" y="938" type="curve" smooth="yes"/>
      <point x="1077" y="938"/>
      <point x="1271" y="747"/>
      <point x="1271" y="459" type="curve" smooth="yes"/>
      <point x="1271" y="85"/>
      <point x="947" y="-271"/>
      <point x="525" y="-271" type="curve" smooth="yes"/>
      <point x="226" y="-271"/>
      <point x="29" y="-86"/>
    </contour>
  </outline>
</glyph>
<glyph name="F.ss04" format="2">
  <advance width="1266"/>
  <note>
F.ss04
</note>
  <outline>
    <contour>
      <point x="931" y="590" type="line"/>
      <point x="956" y="710" type="line"/>
      <point x="531" y="710" type="line"/>
      <point x="379" y="0" type="line"/>
      <point x="516" y="0" type="line"/>
      <point x="572" y="260" type="line"/>
      <point x="808" y="260" type="line"/>
      <point x="833" y="380" type="line"/>
      <point x="597" y="380" type="line"/>
      <point x="642" y="590" type="line"/>
    </contour>
    <contour>
      <point x="29" y="207" type="curve" smooth="yes"/>
      <point x="29" y="580"/>
      <point x="346" y="938"/>
      <point x="772" y="938" type="curve" smooth="yes"/>
      <point x="1077" y="938"/>
      <point x="1271" y="747"/>
      <point x="1271" y="459" type="curve" smooth="yes"/>
      <point x="1271" y="85"/>
      <point x="947" y="-271"/>
      <point x="525" y="-271" type="curve" smooth="yes"/>
      <point x="226" y="-271"/>
      <point x="29" y="-86"/>
    </contour>
  </outline>
</glyph>
<glyph name="G.ss03" format="2">
  <advance width="1275"/>
  <note>
G.ss03
</note>
  <outline>
    <contour>
      <point x="547" y="-271" type="curve" smooth="yes"/>
      <point x="974" y="-271"/>
      <point x="1275" y="76"/>
      <point x="1275" y="440" type="curve" smooth="yes"/>
      <point x="1275" y="750"/>
      <point x="1074" y="938"/>
      <point x="757" y="938" type="curve" smooth="yes"/>
      <point x="325" y="938"/>
      <point x="33" y="583"/>
      <point x="33" y="226" type="curve" smooth="yes"/>
      <point x="33" y="-83"/>
      <point x="243" y="-271"/>
    </contour>
    <contour>
      <point x="160" y="220" type="curve" smooth="yes"/>
      <point x="160" y="526"/>
      <point x="387" y="820"/>
      <point x="757" y="820" type="curve" smooth="yes"/>
      <point x="1000" y="820"/>
      <point x="1148" y="681"/>
      <point x="1148" y="444" type="curve" smooth="yes"/>
      <point x="1148" y="147"/>
      <point x="927" y="-153"/>
      <point x="550" y="-153" type="curve" smooth="yes"/>
      <point x="308" y="-153"/>
      <point x="160" y="-14"/>
    </contour>
    <contour>
      <point x="344" y="195" type="curve" smooth="yes"/>
      <point x="344" y="63"/>
      <point x="401" y="-14"/>
      <point x="562" y="-14" type="curve" smooth="yes"/>
      <point x="652" y="-14"/>
      <point x="796" y="9"/>
      <point x="796" y="9" type="curve"/>
      <point x="871" y="364" type="line"/>
      <point x="651" y="364" type="line"/>
      <point x="626" y="244" type="line"/>
      <point x="718" y="244" type="line"/>
      <point x="690" y="110" type="line"/>
      <point x="690" y="110"/>
      <point x="640" y="104"/>
      <point x="601" y="104" type="curve" smooth="yes"/>
      <point x="516" y="104"/>
      <point x="484" y="129"/>
      <point x="484" y="208" type="curve" smooth="yes"/>
      <point x="484" y="347"/>
      <point x="549" y="604"/>
      <point x="717" y="604" type="curve" smooth="yes"/>
      <point x="793" y="604"/>
      <point x="898" y="585"/>
      <point x="898" y="585" type="curve"/>
      <point x="925" y="692" type="line"/>
      <point x="925" y="692"/>
      <point x="818" y="726"/>
      <point x="717" y="726" type="curve" smooth="yes"/>
      <point x="437" y="726"/>
      <point x="344" y="392"/>
    </contour>
  </outline>
</glyph>
<glyph name="G.ss04" format="2">
  <advance width="1266"/>
  <note>
G.ss04
</note>
  <outline>
    <contour>
      <point x="796" y="9" type="curve"/>
      <point x="871" y="364" type="line"/>
      <point x="651" y="364" type="line"/>
      <point x="626" y="244" type="line"/>
      <point x="718" y="244" type="line"/>
      <point x="690" y="110" type="line"/>
      <point x="690" y="110"/>
      <point x="640" y="104"/>
      <point x="601" y="104" type="curve" smooth="yes"/>
      <point x="516" y="104"/>
      <point x="484" y="129"/>
      <point x="484" y="208" type="curve" smooth="yes"/>
      <point x="484" y="347"/>
      <point x="549" y="604"/>
      <point x="717" y="604" type="curve" smooth="yes"/>
      <point x="793" y="604"/>
      <point x="898" y="585"/>
      <point x="898" y="585" type="curve"/>
      <point x="925" y="692" type="line"/>
      <point x="925" y="692"/>
      <point x="818" y="726"/>
      <point x="717" y="726" type="curve" smooth="yes"/>
      <point x="437" y="726"/>
      <point x="344" y="392"/>
      <point x="344" y="195" type="curve" smooth="yes"/>
      <point x="344" y="63"/>
      <point x="401" y="-14"/>
      <point x="562" y="-14" type="curve" smooth="yes"/>
      <point x="652" y="-14"/>
      <point x="796" y="9"/>
    </contour>
    <contour>
      <point x="29" y="207" type="curve" smooth="yes"/>
      <point x="29" y="580"/>
      <point x="346" y="938"/>
      <point x="772" y="938" type="curve" smooth="yes"/>
      <point x="1077" y="938"/>
      <point x="1271" y="747"/>
      <point x="1271" y="459" type="curve" smooth="yes"/>
      <point x="1271" y="85"/>
      <point x="947" y="-271"/>
      <point x="525" y="-271" type="curve" smooth="yes"/>
      <point x="226" y="-271"/>
      <point x="29" y="-86"/>
    </contour>
  </outline>
</glyph>
<glyph name="H.ss03" format="2">
  <advance width="1275"/>
  <note>
H.ss03
</note>
  <outline>
    <contour>
      <point x="547" y="-271" type="curve" smooth="yes"/>
      <point x="974" y="-271"/>
      <point x="1275" y="76"/>
      <point x="1275" y="440" type="curve" smooth="yes"/>
      <point x="1275" y="750"/>
      <point x="1074" y="938"/>
      <point x="757" y="938" type="curve" smooth="yes"/>
      <point x="325" y="938"/>
      <point x="33" y="583"/>
      <point x="33" y="226" type="curve" smooth="yes"/>
      <point x="33" y="-83"/>
      <point x="243" y="-271"/>
    </contour>
    <contour>
      <point x="160" y="220" type="curve" smooth="yes"/>
      <point x="160" y="526"/>
      <point x="387" y="820"/>
      <point x="757" y="820" type="curve" smooth="yes"/>
      <point x="1000" y="820"/>
      <point x="1148" y="681"/>
      <point x="1148" y="444" type="curve" smooth="yes"/>
      <point x="1148" y="147"/>
      <point x="927" y="-153"/>
      <point x="550" y="-153" type="curve" smooth="yes"/>
      <point x="308" y="-153"/>
      <point x="160" y="-14"/>
    </contour>
    <contour>
      <point x="474" y="710" type="line"/>
      <point x="322" y="0" type="line"/>
      <point x="459" y="0" type="line"/>
      <point x="524" y="304" type="line"/>
      <point x="774" y="304" type="line"/>
      <point x="709" y="0" type="line"/>
      <point x="846" y="0" type="line"/>
      <point x="998" y="710" type="line"/>
      <point x="861" y="710" type="line"/>
      <point x="800" y="424" type="line"/>
      <point x="550" y="424" type="line"/>
      <point x="611" y="710" type="line"/>
    </contour>
  </outline>
</glyph>
<glyph name="H.ss04" format="2">
  <advance width="1266"/>
  <note>
H.ss04
</note>
  <outline>
    <contour>
      <point x="525" y="-271" type="curve" smooth="yes"/>
      <point x="226" y="-271"/>
      <point x="29" y="-86"/>
      <point x="29" y="207" type="curve" smooth="yes"/>
      <point x="29" y="580"/>
      <point x="346" y="938"/>
      <point x="772" y="938" type="curve" smooth="yes"/>
      <point x="1077" y="938"/>
      <point x="1271" y="747"/>
      <point x="1271" y="459" type="curve" smooth="yes"/>
      <point x="1271" y="85"/>
      <point x="947" y="-271"/>
    </contour>
    <contour>
      <point x="474" y="710" type="line"/>
      <point x="322" y="0" type="line"/>
      <point x="459" y="0" type="line"/>
      <point x="524" y="304" type="line"/>
      <point x="774" y="304" type="line"/>
      <point x="709" y="0" type="line"/>
      <point x="846" y="0" type="line"/>
      <point x="998" y="710" type="line"/>
      <point x="861" y="710" type="line"/>
      <point x="800" y="424" type="line"/>
      <point x="550" y="424" type="line"/>
      <point x="611" y="710" type="line"/>
    </contour>
  </outline>
</glyph>
<glyph name="H.ss05" format="2">
  <advance width="1222"/>
  <note>
H.ss05
</note>
  <outline>
    <contour>
      <point x="-79" y="-230" type="line"/>
      <point x="163" y="904" type="line"/>
      <point x="1297" y="904" type="line"/>
      <point x="1055" y="-230" type="line"/>
    </contour>
    <contour>
      <point x="242" y="808" type="line"/>
      <point x="42" y="-134" type="line"/>
      <point x="976" y="-134" type="line"/>
      <point x="1176" y="808" type="line"/>
    </contour>
    <contour>
      <point x="442" y="710" type="line"/>
      <point x="290" y="0" type="line"/>
      <point x="427" y="0" type="line"/>
      <point x="492" y="304" type="line"/>
      <point x="742" y="304" type="line"/>
      <point x="677" y="0" type="line"/>
      <point x="814" y="0" type="line"/>
      <point x="966" y="710" type="line"/>
      <point x="829" y="710" type="line"/>
      <point x="768" y="424" type="line"/>
      <point x="518" y="424" type="line"/>
      <point x="579" y="710" type="line"/>
    </contour>
  </outline>
</glyph>
<glyph name="I.ss05" format="2">
  <advance width="1222"/>
  <note>
I.ss05
</note>
  <outline>
    <contour>
      <point x="-79" y="-230" type="line"/>
      <point x="163" y="904" type="line"/>
      <point x="1297" y="904" type="line"/>
      <point x="1055" y="-230" type="line"/>
    </contour>
    <contour>
      <point x="242" y="808" type="line"/>
      <point x="42" y="-134" type="line"/>
      <point x="976" y="-134" type="line"/>
      <point x="1176" y="808" type="line"/>
    </contour>
    <contour>
      <point x="640" y="710" type="line"/>
      <point x="488" y="0" type="line"/>
      <point x="625" y="0" type="line"/>
      <point x="777" y="710" type="line"/>
    </contour>
  </outline>
</glyph>
<glyph name="J.ss03" format="2">
  <advance width="1275"/>
  <note>
J.ss03
</note>
  <outline>
    <contour>
      <point x="547" y="-271" type="curve" smooth="yes"/>
      <point x="974" y="-271"/>
      <point x="1275" y="76"/>
      <point x="1275" y="440" type="curve" smooth="yes"/>
      <point x="1275" y="750"/>
      <point x="1074" y="938"/>
      <point x="757" y="938" type="curve" smooth="yes"/>
      <point x="325" y="938"/>
      <point x="33" y="583"/>
      <point x="33" y="226" type="curve" smooth="yes"/>
      <point x="33" y="-83"/>
      <point x="243" y="-271"/>
    </contour>
    <contour>
      <point x="160" y="220" type="curve" smooth="yes"/>
      <point x="160" y="526"/>
      <point x="387" y="820"/>
      <point x="757" y="820" type="curve" smooth="yes"/>
      <point x="1000" y="820"/>
      <point x="1148" y="681"/>
      <point x="1148" y="444" type="curve" smooth="yes"/>
      <point x="1148" y="147"/>
      <point x="927" y="-153"/>
      <point x="550" y="-153" type="curve" smooth="yes"/>
      <point x="308" y="-153"/>
      <point x="160" y="-14"/>
    </contour>
    <contour>
      <point x="484" y="113" type="curve"/>
      <point x="459" y="-7" type="line"/>
      <point x="635" y="-7"/>
      <point x="678" y="28"/>
      <point x="710" y="178" type="curve" smooth="yes"/>
      <point x="824" y="710" type="line"/>
      <point x="687" y="710" type="line"/>
      <point x="574" y="184" type="line" smooth="yes"/>
      <point x="562" y="127"/>
      <point x="533" y="113"/>
    </contour>
  </outline>
</glyph>
<glyph name="J.ss04" format="2">
  <advance width="1266"/>
  <note>
J.ss04
</note>
  <outline>
    <contour>
      <point x="710" y="178" type="curve" smooth="yes"/>
      <point x="824" y="710" type="line"/>
      <point x="687" y="710" type="line"/>
      <point x="574" y="184" type="line" smooth="yes"/>
      <point x="562" y="127"/>
      <point x="533" y="113"/>
      <point x="484" y="113" type="curve"/>
      <point x="459" y="-7" type="line"/>
      <point x="635" y="-7"/>
      <point x="678" y="28"/>
    </contour>
    <contour>
      <point x="29" y="207" type="curve" smooth="yes"/>
      <point x="29" y="580"/>
      <point x="346" y="938"/>
      <point x="772" y="938" type="curve" smooth="yes"/>
      <point x="1077" y="938"/>
      <point x="1271" y="747"/>
      <point x="1271" y="459" type="curve" smooth="yes"/>
      <point x="1271" y="85"/>
      <point x="947" y="-271"/>
      <point x="525" y="-271" type="curve" smooth="yes"/>
      <point x="226" y="-271"/>
      <point x="29" y="-86"/>
    </contour>
  </outline>
</glyph>
<glyph name="K.ss03" format="2">
  <advance width="1275"/>
  <note>
K.ss03
</note>
  <outline>
    <contour>
      <point x="547" y="-271" type="curve" smooth="yes"/>
      <point x="974" y="-271"/>
      <point x="1275" y="76"/>
      <point x="1275" y="440" type="curve" smooth="yes"/>
      <point x="1275" y="750"/>
      <point x="1074" y="938"/>
      <point x="757" y="938" type="curve" smooth="yes"/>
      <point x="325" y="938"/>
      <point x="33" y="583"/>
      <point x="33" y="226" type="curve" smooth="yes"/>
      <point x="33" y="-83"/>
      <point x="243" y="-271"/>
    </contour>
    <contour>
      <point x="160" y="220" type="curve" smooth="yes"/>
      <point x="160" y="526"/>
      <point x="387" y="820"/>
      <point x="757" y="820" type="curve" smooth="yes"/>
      <point x="1000" y="820"/>
      <point x="1148" y="681"/>
      <point x="1148" y="444" type="curve" smooth="yes"/>
      <point x="1148" y="147"/>
      <point x="927" y="-153"/>
      <point x="550" y="-153" type="curve" smooth="yes"/>
      <point x="308" y="-153"/>
      <point x="160" y="-14"/>
    </contour>
    <contour>
      <point x="510" y="710" type="line"/>
      <point x="358" y="0" type="line"/>
      <point x="495" y="0" type="line"/>
      <point x="556" y="284" type="line"/>
      <point x="651" y="289" type="line"/>
      <point x="731" y="0" type="line"/>
      <point x="866" y="0" type="line"/>
      <point x="767" y="359" type="line"/>
      <point x="993" y="710" type="line"/>
      <point x="845" y="710" type="line"/>
      <point x="660" y="408" type="line"/>
      <point x="581" y="404" type="line"/>
      <point x="647" y="710" type="line"/>
    </contour>
  </outline>
</glyph>
<glyph name="K.ss04" format="2">
  <advance width="1266"/>
  <note>
K.ss04
</note>
  <outline>
    <contour>
      <point x="495" y="0" type="line"/>
      <point x="556" y="284" type="line"/>
      <point x="651" y="289" type="line"/>
      <point x="731" y="0" type="line"/>
      <point x="866" y="0" type="line"/>
      <point x="767" y="359" type="line"/>
      <point x="993" y="710" type="line"/>
      <point x="845" y="710" type="line"/>
      <point x="660" y="408" type="line"/>
      <point x="581" y="404" type="line"/>
      <point x="647" y="710" type="line"/>
      <point x="510" y="710" type="line"/>
      <point x="358" y="0" type="line"/>
    </contour>
    <contour>
      <point x="29" y="207" type="curve" smooth="yes"/>
      <point x="29" y="580"/>
      <point x="346" y="938"/>
      <point x="772" y="938" type="curve" smooth="yes"/>
      <point x="1077" y="938"/>
      <point x="1271" y="747"/>
      <point x="1271" y="459" type="curve" smooth="yes"/>
      <point x="1271" y="85"/>
      <point x="947" y="-271"/>
      <point x="525" y="-271" type="curve" smooth="yes"/>
      <point x="226" y="-271"/>
      <point x="29" y="-86"/>
    </contour>
  </outline>
</glyph>
<glyph name="K.ss05" format="2">
  <advance width="1222"/>
  <note>
K.ss05
</note>
  <outline>
    <contour>
      <point x="-79" y="-230" type="line"/>
      <point x="163" y="904" type="line"/>
      <point x="1297" y="904" type="line"/>
      <point x="1055" y="-230" type="line"/>
    </contour>
    <contour>
      <point x="242" y="808" type="line"/>
      <point x="42" y="-134" type="line"/>
      <point x="976" y="-134" type="line"/>
      <point x="1176" y="808" type="line"/>
    </contour>
    <contour>
      <point x="477" y="710" type="line"/>
      <point x="325" y="0" type="line"/>
      <point x="462" y="0" type="line"/>
      <point x="523" y="284" type="line"/>
      <point x="618" y="289" type="line"/>
      <point x="698" y="0" type="line"/>
      <point x="833" y="0" type="line"/>
      <point x="734" y="359" type="line"/>
      <point x="960" y="710" type="line"/>
      <point x="812" y="710" type="line"/>
      <point x="627" y="408" type="line"/>
      <point x="548" y="404" type="line"/>
      <point x="614" y="710" type="line"/>
    </contour>
  </outline>
</glyph>
<glyph name="L.ss04" format="2">
  <advance width="1266"/>
  <note>
L.ss04
</note>
  <outline>
    <contour>
      <point x="705" y="710" type="line"/>
      <point x="568" y="710" type="line"/>
      <point x="416" y="0" type="line"/>
      <point x="817" y="0" type="line"/>
      <point x="843" y="122" type="line"/>
      <point x="579" y="122" type="line"/>
    </contour>
    <contour>
      <point x="29" y="207" type="curve" smooth="yes"/>
      <point x="29" y="580"/>
      <point x="346" y="938"/>
      <point x="772" y="938" type="curve" smooth="yes"/>
      <point x="1077" y="938"/>
      <point x="1271" y="747"/>
      <point x="1271" y="459" type="curve" smooth="yes"/>
      <point x="1271" y="85"/>
      <point x="947" y="-271"/>
      <point x="525" y="-271" type="curve" smooth="yes"/>
      <point x="226" y="-271"/>
      <point x="29" y="-86"/>
    </contour>
  </outline>
</glyph>
<glyph name="L.ss05" format="2">
  <advance width="1222"/>
  <note>
L.ss05
</note>
  <outline>
    <contour>
      <point x="-79" y="-230" type="line"/>
      <point x="163" y="904" type="line"/>
      <point x="1297" y="904" type="line"/>
      <point x="1055" y="-230" type="line"/>
    </contour>
    <contour>
      <point x="242" y="808" type="line"/>
      <point x="42" y="-134" type="line"/>
      <point x="976" y="-134" type="line"/>
      <point x="1176" y="808" type="line"/>
    </contour>
    <contour>
      <point x="516" y="710" type="line"/>
      <point x="364" y="0" type="line"/>
      <point x="765" y="0" type="line"/>
      <point x="791" y="122" type="line"/>
      <point x="527" y="122" type="line"/>
      <point x="653" y="710" type="line"/>
    </contour>
  </outline>
</glyph>
<glyph name="M.ss03" format="2">
  <advance width="1275"/>
  <note>
M.ss03
</note>
  <outline>
    <contour>
      <point x="668" y="700" type="line"/>
      <point x="428" y="700" type="line"/>
      <point x="279" y="0" type="line"/>
      <point x="412" y="0" type="line"/>
      <point x="528" y="546" type="line"/>
      <point x="557" y="546" type="line"/>
      <point x="515" y="0" type="line"/>
      <point x="648" y="0" type="line"/>
      <point x="839" y="546" type="line"/>
      <point x="868" y="546" type="line"/>
      <point x="752" y="0" type="line"/>
      <point x="884" y="0" type="line"/>
      <point x="1033" y="700" type="line"/>
      <point x="793" y="700" type="line"/>
      <point x="619" y="177" type="line"/>
    </contour>
    <contour>
      <point x="33" y="226" type="curve" smooth="yes"/>
      <point x="33" y="-83"/>
      <point x="243" y="-271"/>
      <point x="547" y="-271" type="curve" smooth="yes"/>
      <point x="974" y="-271"/>
      <point x="1275" y="76"/>
      <point x="1275" y="440" type="curve" smooth="yes"/>
      <point x="1275" y="750"/>
      <point x="1074" y="938"/>
      <point x="757" y="938" type="curve" smooth="yes"/>
      <point x="325" y="938"/>
      <point x="33" y="583"/>
    </contour>
    <contour>
      <point x="160" y="220" type="curve" smooth="yes"/>
      <point x="160" y="526"/>
      <point x="387" y="820"/>
      <point x="757" y="820" type="curve" smooth="yes"/>
      <point x="1000" y="820"/>
      <point x="1148" y="681"/>
      <point x="1148" y="444" type="curve" smooth="yes"/>
      <point x="1148" y="147"/>
      <point x="927" y="-153"/>
      <point x="550" y="-153" type="curve" smooth="yes"/>
      <point x="308" y="-153"/>
      <point x="160" y="-14"/>
    </contour>
  </outline>
</glyph>
<glyph name="M.ss04" format="2">
  <advance width="1266"/>
  <note>
M.ss04
</note>
  <outline>
    <contour>
      <point x="613" y="152" type="line"/>
      <point x="627" y="710" type="line"/>
      <point x="387" y="710" type="line"/>
      <point x="236" y="0" type="line"/>
      <point x="367" y="0" type="line"/>
      <point x="485" y="556" type="line"/>
      <point x="515" y="556" type="line"/>
      <point x="509" y="0" type="line"/>
      <point x="653" y="0" type="line"/>
      <point x="882" y="556" type="line"/>
      <point x="912" y="556" type="line"/>
      <point x="794" y="0" type="line"/>
      <point x="921" y="0" type="line"/>
      <point x="1072" y="710" type="line"/>
      <point x="839" y="710" type="line"/>
    </contour>
    <contour>
      <point x="29" y="207" type="curve" smooth="yes"/>
      <point x="29" y="580"/>
      <point x="346" y="938"/>
      <point x="772" y="938" type="curve" smooth="yes"/>
      <point x="1077" y="938"/>
      <point x="1271" y="747"/>
      <point x="1271" y="459" type="curve" smooth="yes"/>
      <point x="1271" y="85"/>
      <point x="947" y="-271"/>
      <point x="525" y="-271" type="curve" smooth="yes"/>
      <point x="226" y="-271"/>
      <point x="29" y="-86"/>
    </contour>
  </outline>
</glyph>
<glyph name="M.ss05" format="2">
  <advance width="1222"/>
  <note>
M.ss05
</note>
  <outline>
    <contour>
      <point x="-79" y="-230" type="line"/>
      <point x="163" y="904" type="line"/>
      <point x="1297" y="904" type="line"/>
      <point x="1055" y="-230" type="line"/>
    </contour>
    <contour>
      <point x="242" y="808" type="line"/>
      <point x="42" y="-134" type="line"/>
      <point x="976" y="-134" type="line"/>
      <point x="1176" y="808" type="line"/>
    </contour>
    <contour>
      <point x="364" y="710" type="line"/>
      <point x="218" y="0" type="line"/>
      <point x="344" y="0" type="line"/>
      <point x="458" y="556" type="line"/>
      <point x="487" y="556" type="line"/>
      <point x="481" y="0" type="line"/>
      <point x="619" y="0" type="line"/>
      <point x="839" y="556" type="line"/>
      <point x="868" y="556" type="line"/>
      <point x="755" y="0" type="line"/>
      <point x="877" y="0" type="line"/>
      <point x="1022" y="710" type="line"/>
      <point x="798" y="710" type="line"/>
      <point x="581" y="152" type="line"/>
      <point x="594" y="710" type="line"/>
    </contour>
  </outline>
</glyph>
<glyph name="N.ss04" format="2">
  <advance width="1266"/>
  <note>
N.ss04
</note>
  <outline>
    <contour>
      <point x="726" y="120" type="line"/>
      <point x="697" y="710" type="line"/>
      <point x="456" y="710" type="line"/>
      <point x="304" y="0" type="line"/>
      <point x="437" y="0" type="line"/>
      <point x="563" y="590" type="line"/>
      <point x="593" y="590" type="line"/>
      <point x="628" y="0" type="line"/>
      <point x="864" y="0" type="line"/>
      <point x="1015" y="710" type="line"/>
      <point x="882" y="710" type="line"/>
      <point x="756" y="120" type="line"/>
    </contour>
    <contour>
      <point x="29" y="207" type="curve" smooth="yes"/>
      <point x="29" y="580"/>
      <point x="346" y="938"/>
      <point x="772" y="938" type="curve" smooth="yes"/>
      <point x="1077" y="938"/>
      <point x="1271" y="747"/>
      <point x="1271" y="459" type="curve" smooth="yes"/>
      <point x="1271" y="85"/>
      <point x="947" y="-271"/>
      <point x="525" y="-271" type="curve" smooth="yes"/>
      <point x="226" y="-271"/>
      <point x="29" y="-86"/>
    </contour>
  </outline>
</glyph>
<glyph name="N.ss05" format="2">
  <advance width="1222"/>
  <note>
N.ss05
</note>
  <outline>
    <contour>
      <point x="-79" y="-230" type="line"/>
      <point x="163" y="904" type="line"/>
      <point x="1297" y="904" type="line"/>
      <point x="1055" y="-230" type="line"/>
    </contour>
    <contour>
      <point x="242" y="808" type="line"/>
      <point x="42" y="-134" type="line"/>
      <point x="976" y="-134" type="line"/>
      <point x="1176" y="808" type="line"/>
    </contour>
    <contour>
      <point x="416" y="710" type="line"/>
      <point x="264" y="0" type="line"/>
      <point x="397" y="0" type="line"/>
      <point x="523" y="590" type="line"/>
      <point x="553" y="590" type="line"/>
      <point x="588" y="0" type="line"/>
      <point x="824" y="0" type="line"/>
      <point x="975" y="710" type="line"/>
      <point x="842" y="710" type="line"/>
      <point x="716" y="120" type="line"/>
      <point x="686" y="120" type="line"/>
      <point x="657" y="710" type="line"/>
    </contour>
  </outline>
</glyph>
<glyph name="O.ss03" format="2">
  <advance width="1275"/>
  <note>
O.ss03
</note>
  <outline>
    <contour>
      <point x="547" y="-271" type="curve" smooth="yes"/>
      <point x="974" y="-271"/>
      <point x="1275" y="76"/>
      <point x="1275" y="440" type="curve" smooth="yes"/>
      <point x="1275" y="750"/>
      <point x="1074" y="938"/>
      <point x="757" y="938" type="curve" smooth="yes"/>
      <point x="325" y="938"/>
      <point x="33" y="583"/>
      <point x="33" y="226" type="curve" smooth="yes"/>
      <point x="33" y="-83"/>
      <point x="243" y="-271"/>
    </contour>
    <contour>
      <point x="160" y="220" type="curve" smooth="yes"/>
      <point x="160" y="526"/>
      <point x="387" y="820"/>
      <point x="757" y="820" type="curve" smooth="yes"/>
      <point x="1000" y="820"/>
      <point x="1148" y="681"/>
      <point x="1148" y="444" type="curve" smooth="yes"/>
      <point x="1148" y="147"/>
      <point x="927" y="-153"/>
      <point x="550" y="-153" type="curve" smooth="yes"/>
      <point x="308" y="-153"/>
      <point x="160" y="-14"/>
    </contour>
    <contour>
      <point x="354" y="227" type="curve" smooth="yes"/>
      <point x="354" y="79"/>
      <point x="436" y="-14"/>
      <point x="601" y="-14" type="curve" smooth="yes"/>
      <point x="859" y="-14"/>
      <point x="970" y="257"/>
      <point x="970" y="481" type="curve" smooth="yes"/>
      <point x="970" y="632"/>
      <point x="889" y="726"/>
      <point x="724" y="726" type="curve" smooth="yes"/>
      <point x="457" y="726"/>
      <point x="354" y="450"/>
    </contour>
    <contour>
      <point x="496" y="224" type="curve" smooth="yes"/>
      <point x="496" y="390"/>
      <point x="561" y="606"/>
      <point x="719" y="606" type="curve" smooth="yes"/>
      <point x="792" y="606"/>
      <point x="828" y="566"/>
      <point x="828" y="483" type="curve" smooth="yes"/>
      <point x="828" y="382"/>
      <point x="782" y="106"/>
      <point x="605" y="106" type="curve" smooth="yes"/>
      <point x="532" y="106"/>
      <point x="496" y="142"/>
    </contour>
  </outline>
</glyph>
<glyph name="O.ss04" format="2">
  <advance width="1266"/>
  <note>
O.ss04
</note>
  <outline>
    <contour>
      <point x="601" y="-14" type="curve" smooth="yes"/>
      <point x="859" y="-14"/>
      <point x="970" y="257"/>
      <point x="970" y="481" type="curve" smooth="yes"/>
      <point x="970" y="632"/>
      <point x="889" y="726"/>
      <point x="724" y="726" type="curve" smooth="yes"/>
      <point x="457" y="726"/>
      <point x="354" y="450"/>
      <point x="354" y="227" type="curve" smooth="yes"/>
      <point x="354" y="79"/>
      <point x="436" y="-14"/>
    </contour>
    <contour>
      <point x="29" y="207" type="curve" smooth="yes"/>
      <point x="29" y="580"/>
      <point x="346" y="938"/>
      <point x="772" y="938" type="curve" smooth="yes"/>
      <point x="1077" y="938"/>
      <point x="1271" y="747"/>
      <point x="1271" y="459" type="curve" smooth="yes"/>
      <point x="1271" y="85"/>
      <point x="947" y="-271"/>
      <point x="525" y="-271" type="curve" smooth="yes"/>
      <point x="226" y="-271"/>
      <point x="29" y="-86"/>
    </contour>
    <contour>
      <point x="496" y="224" type="curve" smooth="yes"/>
      <point x="496" y="390"/>
      <point x="561" y="606"/>
      <point x="719" y="606" type="curve" smooth="yes"/>
      <point x="792" y="606"/>
      <point x="828" y="566"/>
      <point x="828" y="483" type="curve" smooth="yes"/>
      <point x="828" y="382"/>
      <point x="782" y="106"/>
      <point x="605" y="106" type="curve" smooth="yes"/>
      <point x="532" y="106"/>
      <point x="496" y="142"/>
    </contour>
  </outline>
</glyph>
<glyph name="P.ss03" format="2">
  <advance width="1275"/>
  <note>
P.ss03
</note>
  <outline>
    <contour>
      <point x="547" y="-271" type="curve" smooth="yes"/>
      <point x="974" y="-271"/>
      <point x="1275" y="76"/>
      <point x="1275" y="440" type="curve" smooth="yes"/>
      <point x="1275" y="750"/>
      <point x="1074" y="938"/>
      <point x="757" y="938" type="curve" smooth="yes"/>
      <point x="325" y="938"/>
      <point x="33" y="583"/>
      <point x="33" y="226" type="curve" smooth="yes"/>
      <point x="33" y="-83"/>
      <point x="243" y="-271"/>
    </contour>
    <contour>
      <point x="160" y="220" type="curve" smooth="yes"/>
      <point x="160" y="526"/>
      <point x="387" y="820"/>
      <point x="757" y="820" type="curve" smooth="yes"/>
      <point x="1000" y="820"/>
      <point x="1148" y="681"/>
      <point x="1148" y="444" type="curve" smooth="yes"/>
      <point x="1148" y="147"/>
      <point x="927" y="-153"/>
      <point x="550" y="-153" type="curve" smooth="yes"/>
      <point x="308" y="-153"/>
      <point x="160" y="-14"/>
    </contour>
    <contour>
      <point x="521" y="710" type="line"/>
      <point x="369" y="0" type="line"/>
      <point x="506" y="0" type="line"/>
      <point x="548" y="198" type="line"/>
      <point x="668" y="198" type="line" smooth="yes"/>
      <point x="887" y="198"/>
      <point x="968" y="353"/>
      <point x="968" y="508" type="curve" smooth="yes"/>
      <point x="968" y="648"/>
      <point x="904" y="710"/>
      <point x="765" y="710" type="curve" smooth="yes"/>
    </contour>
    <contour>
      <point x="682" y="316" type="curve" smooth="yes"/>
      <point x="574" y="316" type="line"/>
      <point x="633" y="592" type="line"/>
      <point x="750" y="592" type="line" smooth="yes"/>
      <point x="808" y="592"/>
      <point x="829" y="563"/>
      <point x="829" y="488" type="curve" smooth="yes"/>
      <point x="829" y="396"/>
      <point x="786" y="316"/>
    </contour>
  </outline>
</glyph>
<glyph name="P.ss04" format="2">
  <advance width="1266"/>
  <note>
P.ss04
</note>
  <outline>
    <contour>
      <point x="369" y="0" type="line"/>
      <point x="506" y="0" type="line"/>
      <point x="548" y="198" type="line"/>
      <point x="668" y="198" type="line" smooth="yes"/>
      <point x="887" y="198"/>
      <point x="968" y="353"/>
      <point x="968" y="508" type="curve" smooth="yes"/>
      <point x="968" y="648"/>
      <point x="904" y="710"/>
      <point x="765" y="710" type="curve" smooth="yes"/>
      <point x="521" y="710" type="line"/>
    </contour>
    <contour>
      <point x="29" y="207" type="curve" smooth="yes"/>
      <point x="29" y="580"/>
      <point x="346" y="938"/>
      <point x="772" y="938" type="curve" smooth="yes"/>
      <point x="1077" y="938"/>
      <point x="1271" y="747"/>
      <point x="1271" y="459" type="curve" smooth="yes"/>
      <point x="1271" y="85"/>
      <point x="947" y="-271"/>
      <point x="525" y="-271" type="curve" smooth="yes"/>
      <point x="226" y="-271"/>
      <point x="29" y="-86"/>
    </contour>
    <contour>
      <point x="682" y="316" type="curve" smooth="yes"/>
      <point x="574" y="316" type="line"/>
      <point x="633" y="592" type="line"/>
      <point x="750" y="592" type="line" smooth="yes"/>
      <point x="808" y="592"/>
      <point x="829" y="563"/>
      <point x="829" y="488" type="curve" smooth="yes"/>
      <point x="829" y="396"/>
      <point x="786" y="316"/>
    </contour>
  </outline>
</glyph>
<glyph name="Q.ss03" format="2">
  <advance width="1275"/>
  <note>
Q.ss03
</note>
  <outline>
    <contour>
      <point x="599" y="107" type="curve" smooth="yes"/>
      <point x="524" y="107"/>
      <point x="488" y="144"/>
      <point x="488" y="225" type="curve" smooth="yes"/>
      <point x="488" y="368"/>
      <point x="544" y="606"/>
      <point x="710" y="606" type="curve" smooth="yes"/>
      <point x="786" y="606"/>
      <point x="819" y="567"/>
      <point x="819" y="480" type="curve" smooth="yes"/>
      <point x="819" y="297"/>
      <point x="754" y="107"/>
    </contour>
    <contour>
      <point x="33" y="226" type="curve" smooth="yes"/>
      <point x="33" y="-83"/>
      <point x="243" y="-271"/>
      <point x="547" y="-271" type="curve" smooth="yes"/>
      <point x="974" y="-271"/>
      <point x="1275" y="76"/>
      <point x="1275" y="440" type="curve" smooth="yes"/>
      <point x="1275" y="750"/>
      <point x="1074" y="938"/>
      <point x="757" y="938" type="curve" smooth="yes"/>
      <point x="325" y="938"/>
      <point x="33" y="583"/>
    </contour>
    <contour>
      <point x="160" y="220" type="curve" smooth="yes"/>
      <point x="160" y="526"/>
      <point x="387" y="820"/>
      <point x="757" y="820" type="curve" smooth="yes"/>
      <point x="1000" y="820"/>
      <point x="1148" y="681"/>
      <point x="1148" y="444" type="curve" smooth="yes"/>
      <point x="1148" y="147"/>
      <point x="927" y="-153"/>
      <point x="550" y="-153" type="curve" smooth="yes"/>
      <point x="308" y="-153"/>
      <point x="160" y="-14"/>
    </contour>
    <contour>
      <point x="346" y="232" type="curve" smooth="yes"/>
      <point x="346" y="82"/>
      <point x="424" y="-12"/>
      <point x="576" y="-12" type="curve" smooth="yes"/>
      <point x="592" y="-12"/>
      <point x="605" y="-11"/>
      <point x="619" y="-10" type="curve"/>
      <point x="655" y="-96" type="line"/>
      <point x="793" y="-38" type="line"/>
      <point x="762" y="33" type="line"/>
      <point x="917" y="135"/>
      <point x="962" y="342"/>
      <point x="962" y="485" type="curve" smooth="yes"/>
      <point x="962" y="646"/>
      <point x="863" y="726"/>
      <point x="720" y="726" type="curve" smooth="yes"/>
      <point x="442" y="726"/>
      <point x="346" y="441"/>
    </contour>
  </outline>
</glyph>
<glyph name="Q.ss04" format="2">
  <advance width="1266"/>
  <note>
Q.ss04
</note>
  <outline>
    <contour>
      <point x="579" y="-12" type="curve" smooth="yes"/>
      <point x="596" y="-12"/>
      <point x="611" y="-11"/>
      <point x="625" y="-9" type="curve"/>
      <point x="673" y="-126" type="line"/>
      <point x="814" y="-72" type="line"/>
      <point x="769" y="33" type="line"/>
      <point x="906" y="122"/>
      <point x="968" y="309"/>
      <point x="968" y="481" type="curve" smooth="yes"/>
      <point x="968" y="632"/>
      <point x="887" y="726"/>
      <point x="722" y="726" type="curve" smooth="yes"/>
      <point x="455" y="726"/>
      <point x="352" y="454"/>
      <point x="352" y="231" type="curve" smooth="yes"/>
      <point x="352" y="83"/>
      <point x="434" y="-12"/>
    </contour>
    <contour>
      <point x="29" y="207" type="curve" smooth="yes"/>
      <point x="29" y="580"/>
      <point x="346" y="938"/>
      <point x="772" y="938" type="curve" smooth="yes"/>
      <point x="1077" y="938"/>
      <point x="1271" y="747"/>
      <point x="1271" y="459" type="curve" smooth="yes"/>
      <point x="1271" y="85"/>
      <point x="947" y="-271"/>
      <point x="525" y="-271" type="curve" smooth="yes"/>
      <point x="226" y="-271"/>
      <point x="29" y="-86"/>
    </contour>
    <contour>
      <point x="494" y="228" type="curve" smooth="yes"/>
      <point x="494" y="387"/>
      <point x="559" y="606"/>
      <point x="717" y="606" type="curve" smooth="yes"/>
      <point x="790" y="606"/>
      <point x="826" y="566"/>
      <point x="826" y="483" type="curve" smooth="yes"/>
      <point x="826" y="382"/>
      <point x="780" y="107"/>
      <point x="603" y="107" type="curve" smooth="yes"/>
      <point x="530" y="107"/>
      <point x="494" y="146"/>
    </contour>
  </outline>
</glyph>
<glyph name="R.ss03" format="2">
  <advance width="1275"/>
  <note>
R.ss03
</note>
  <outline>
    <contour>
      <point x="547" y="-271" type="curve" smooth="yes"/>
      <point x="974" y="-271"/>
      <point x="1275" y="76"/>
      <point x="1275" y="440" type="curve" smooth="yes"/>
      <point x="1275" y="750"/>
      <point x="1074" y="938"/>
      <point x="757" y="938" type="curve" smooth="yes"/>
      <point x="325" y="938"/>
      <point x="33" y="583"/>
      <point x="33" y="226" type="curve" smooth="yes"/>
      <point x="33" y="-83"/>
      <point x="243" y="-271"/>
    </contour>
    <contour>
      <point x="160" y="220" type="curve" smooth="yes"/>
      <point x="160" y="526"/>
      <point x="387" y="820"/>
      <point x="757" y="820" type="curve" smooth="yes"/>
      <point x="1000" y="820"/>
      <point x="1148" y="681"/>
      <point x="1148" y="444" type="curve" smooth="yes"/>
      <point x="1148" y="147"/>
      <point x="927" y="-153"/>
      <point x="550" y="-153" type="curve" smooth="yes"/>
      <point x="308" y="-153"/>
      <point x="160" y="-14"/>
    </contour>
    <contour>
      <point x="500" y="710" type="line"/>
      <point x="348" y="0" type="line"/>
      <point x="485" y="0" type="line"/>
      <point x="536" y="238" type="line"/>
      <point x="660" y="238" type="line"/>
      <point x="715" y="0" type="line"/>
      <point x="851" y="0" type="line"/>
      <point x="785" y="273" type="line"/>
      <point x="894" y="311"/>
      <point x="949" y="395"/>
      <point x="949" y="507" type="curve" smooth="yes"/>
      <point x="949" y="641"/>
      <point x="885" y="710"/>
      <point x="751" y="710" type="curve" smooth="yes"/>
    </contour>
    <contour>
      <point x="678" y="356" type="curve" smooth="yes"/>
      <point x="561" y="356" type="line"/>
      <point x="612" y="592" type="line"/>
      <point x="733" y="592" type="line" smooth="yes"/>
      <point x="785" y="592"/>
      <point x="807" y="567"/>
      <point x="807" y="498" type="curve" smooth="yes"/>
      <point x="807" y="421"/>
      <point x="771" y="356"/>
    </contour>
  </outline>
</glyph>
<glyph name="R.ss04" format="2">
  <advance width="1266"/>
  <note>
R.ss04
</note>
  <outline>
    <contour>
      <point x="348" y="0" type="line"/>
      <point x="485" y="0" type="line"/>
      <point x="536" y="238" type="line"/>
      <point x="660" y="238" type="line"/>
      <point x="715" y="0" type="line"/>
      <point x="851" y="0" type="line"/>
      <point x="785" y="273" type="line"/>
      <point x="894" y="311"/>
      <point x="949" y="395"/>
      <point x="949" y="507" type="curve" smooth="yes"/>
      <point x="949" y="641"/>
      <point x="885" y="710"/>
      <point x="751" y="710" type="curve" smooth="yes"/>
      <point x="500" y="710" type="line"/>
    </contour>
    <contour>
      <point x="29" y="207" type="curve" smooth="yes"/>
      <point x="29" y="580"/>
      <point x="346" y="938"/>
      <point x="772" y="938" type="curve" smooth="yes"/>
      <point x="1077" y="938"/>
      <point x="1271" y="747"/>
      <point x="1271" y="459" type="curve" smooth="yes"/>
      <point x="1271" y="85"/>
      <point x="947" y="-271"/>
      <point x="525" y="-271" type="curve" smooth="yes"/>
      <point x="226" y="-271"/>
      <point x="29" y="-86"/>
    </contour>
    <contour>
      <point x="678" y="356" type="curve" smooth="yes"/>
      <point x="561" y="356" type="line"/>
      <point x="612" y="592" type="line"/>
      <point x="733" y="592" type="line" smooth="yes"/>
      <point x="785" y="592"/>
      <point x="807" y="567"/>
      <point x="807" y="498" type="curve" smooth="yes"/>
      <point x="807" y="421"/>
      <point x="771" y="356"/>
    </contour>
  </outline>
</glyph>
<glyph name="S.ss03" format="2">
  <advance width="1275"/>
  <note>
S.ss03
</note>
  <outline>
    <contour>
      <point x="547" y="-271" type="curve" smooth="yes"/>
      <point x="974" y="-271"/>
      <point x="1275" y="76"/>
      <point x="1275" y="440" type="curve" smooth="yes"/>
      <point x="1275" y="750"/>
      <point x="1074" y="938"/>
      <point x="757" y="938" type="curve" smooth="yes"/>
      <point x="325" y="938"/>
      <point x="33" y="583"/>
      <point x="33" y="226" type="curve" smooth="yes"/>
      <point x="33" y="-83"/>
      <point x="243" y="-271"/>
    </contour>
    <contour>
      <point x="160" y="220" type="curve" smooth="yes"/>
      <point x="160" y="526"/>
      <point x="387" y="820"/>
      <point x="757" y="820" type="curve" smooth="yes"/>
      <point x="1000" y="820"/>
      <point x="1148" y="681"/>
      <point x="1148" y="444" type="curve" smooth="yes"/>
      <point x="1148" y="147"/>
      <point x="927" y="-153"/>
      <point x="550" y="-153" type="curve" smooth="yes"/>
      <point x="308" y="-153"/>
      <point x="160" y="-14"/>
    </contour>
    <contour>
      <point x="393" y="126" type="curve"/>
      <point x="366" y="16" type="line"/>
      <point x="366" y="16"/>
      <point x="478" y="-14"/>
      <point x="581" y="-14" type="curve" smooth="yes"/>
      <point x="812" y="-14"/>
      <point x="869" y="101"/>
      <point x="869" y="244" type="curve" smooth="yes"/>
      <point x="869" y="328"/>
      <point x="835" y="368"/>
      <point x="757" y="401" type="curve" smooth="yes"/>
      <point x="651" y="446" type="line" smooth="yes"/>
      <point x="607" y="465"/>
      <point x="589" y="488"/>
      <point x="589" y="520" type="curve" smooth="yes"/>
      <point x="589" y="579"/>
      <point x="640" y="606"/>
      <point x="714" y="606" type="curve" smooth="yes"/>
      <point x="771" y="606"/>
      <point x="893" y="590"/>
      <point x="893" y="590" type="curve"/>
      <point x="920" y="699" type="line"/>
      <point x="920" y="699"/>
      <point x="825" y="726"/>
      <point x="726" y="726" type="curve" smooth="yes"/>
      <point x="509" y="726"/>
      <point x="450" y="611"/>
      <point x="450" y="497" type="curve" smooth="yes"/>
      <point x="450" y="428"/>
      <point x="482" y="370"/>
      <point x="571" y="331" type="curve" smooth="yes"/>
      <point x="664" y="290" type="line" smooth="yes"/>
      <point x="706" y="272"/>
      <point x="728" y="260"/>
      <point x="728" y="212" type="curve" smooth="yes"/>
      <point x="728" y="153"/>
      <point x="698" y="106"/>
      <point x="584" y="106" type="curve" smooth="yes"/>
      <point x="516" y="106"/>
      <point x="393" y="126"/>
    </contour>
  </outline>
</glyph>
<glyph name="S.ss04" format="2">
  <advance width="1266"/>
  <note>
S.ss04
</note>
  <outline>
    <contour>
      <point x="893" y="590" type="curve"/>
      <point x="920" y="699" type="line"/>
      <point x="920" y="699"/>
      <point x="825" y="726"/>
      <point x="726" y="726" type="curve" smooth="yes"/>
      <point x="509" y="726"/>
      <point x="450" y="611"/>
      <point x="450" y="497" type="curve" smooth="yes"/>
      <point x="450" y="428"/>
      <point x="482" y="370"/>
      <point x="571" y="331" type="curve" smooth="yes"/>
      <point x="664" y="290" type="line" smooth="yes"/>
      <point x="706" y="272"/>
      <point x="728" y="260"/>
      <point x="728" y="212" type="curve" smooth="yes"/>
      <point x="728" y="153"/>
      <point x="698" y="106"/>
      <point x="584" y="106" type="curve" smooth="yes"/>
      <point x="516" y="106"/>
      <point x="393" y="126"/>
      <point x="393" y="126" type="curve"/>
      <point x="366" y="16" type="line"/>
      <point x="366" y="16"/>
      <point x="478" y="-14"/>
      <point x="581" y="-14" type="curve" smooth="yes"/>
      <point x="812" y="-14"/>
      <point x="869" y="101"/>
      <point x="869" y="244" type="curve" smooth="yes"/>
      <point x="869" y="328"/>
      <point x="835" y="368"/>
      <point x="757" y="401" type="curve" smooth="yes"/>
      <point x="651" y="446" type="line" smooth="yes"/>
      <point x="607" y="465"/>
      <point x="589" y="488"/>
      <point x="589" y="520" type="curve" smooth="yes"/>
      <point x="589" y="579"/>
      <point x="640" y="606"/>
      <point x="714" y="606" type="curve" smooth="yes"/>
      <point x="771" y="606"/>
      <point x="893" y="590"/>
    </contour>
    <contour>
      <point x="29" y="207" type="curve" smooth="yes"/>
      <point x="29" y="580"/>
      <point x="346" y="938"/>
      <point x="772" y="938" type="curve" smooth="yes"/>
      <point x="1077" y="938"/>
      <point x="1271" y="747"/>
      <point x="1271" y="459" type="curve" smooth="yes"/>
      <point x="1271" y="85"/>
      <point x="947" y="-271"/>
      <point x="525" y="-271" type="curve" smooth="yes"/>
      <point x="226" y="-271"/>
      <point x="29" y="-86"/>
    </contour>
  </outline>
</glyph>
<glyph name="T.ss04" format="2">
  <advance width="1266"/>
  <note>
T.ss04
</note>
  <outline>
    <contour>
      <point x="964" y="588" type="line"/>
      <point x="990" y="710" type="line"/>
      <point x="480" y="710" type="line"/>
      <point x="454" y="588" type="line"/>
      <point x="641" y="588" type="line"/>
      <point x="516" y="0" type="line"/>
      <point x="653" y="0" type="line"/>
      <point x="778" y="588" type="line"/>
    </contour>
    <contour>
      <point x="29" y="207" type="curve" smooth="yes"/>
      <point x="29" y="580"/>
      <point x="346" y="938"/>
      <point x="772" y="938" type="curve" smooth="yes"/>
      <point x="1077" y="938"/>
      <point x="1271" y="747"/>
      <point x="1271" y="459" type="curve" smooth="yes"/>
      <point x="1271" y="85"/>
      <point x="947" y="-271"/>
      <point x="525" y="-271" type="curve" smooth="yes"/>
      <point x="226" y="-271"/>
      <point x="29" y="-86"/>
    </contour>
  </outline>
</glyph>
<glyph name="T.ss05" format="2">
  <advance width="1222"/>
  <note>
T.ss05
</note>
  <outline>
    <contour>
      <point x="-79" y="-230" type="line"/>
      <point x="163" y="904" type="line"/>
      <point x="1297" y="904" type="line"/>
      <point x="1055" y="-230" type="line"/>
    </contour>
    <contour>
      <point x="242" y="808" type="line"/>
      <point x="42" y="-134" type="line"/>
      <point x="976" y="-134" type="line"/>
      <point x="1176" y="808" type="line"/>
    </contour>
    <contour>
      <point x="449" y="710" type="line"/>
      <point x="423" y="588" type="line"/>
      <point x="610" y="588" type="line"/>
      <point x="485" y="0" type="line"/>
      <point x="622" y="0" type="line"/>
      <point x="747" y="588" type="line"/>
      <point x="933" y="588" type="line"/>
      <point x="959" y="710" type="line"/>
    </contour>
  </outline>
</glyph>
<glyph name="U.ss03" format="2">
  <advance width="1275"/>
  <note>
U.ss03
</note>
  <outline>
    <contour>
      <point x="547" y="-271" type="curve" smooth="yes"/>
      <point x="974" y="-271"/>
      <point x="1275" y="76"/>
      <point x="1275" y="440" type="curve" smooth="yes"/>
      <point x="1275" y="750"/>
      <point x="1074" y="938"/>
      <point x="757" y="938" type="curve" smooth="yes"/>
      <point x="325" y="938"/>
      <point x="33" y="583"/>
      <point x="33" y="226" type="curve" smooth="yes"/>
      <point x="33" y="-83"/>
      <point x="243" y="-271"/>
    </contour>
    <contour>
      <point x="160" y="220" type="curve" smooth="yes"/>
      <point x="160" y="526"/>
      <point x="387" y="820"/>
      <point x="757" y="820" type="curve" smooth="yes"/>
      <point x="1000" y="820"/>
      <point x="1148" y="681"/>
      <point x="1148" y="444" type="curve" smooth="yes"/>
      <point x="1148" y="147"/>
      <point x="927" y="-153"/>
      <point x="550" y="-153" type="curve" smooth="yes"/>
      <point x="308" y="-153"/>
      <point x="160" y="-14"/>
    </contour>
    <contour>
      <point x="475" y="710" type="line"/>
      <point x="377" y="251" type="line" smooth="yes"/>
      <point x="342" y="88"/>
      <point x="415" y="-14"/>
      <point x="606" y="-14" type="curve" smooth="yes"/>
      <point x="772" y="-14"/>
      <point x="843" y="52"/>
      <point x="878" y="218" type="curve" smooth="yes"/>
      <point x="983" y="710" type="line"/>
      <point x="846" y="710" type="line"/>
      <point x="743" y="227" type="line" smooth="yes"/>
      <point x="724" y="137"/>
      <point x="684" y="106"/>
      <point x="612" y="106" type="curve" smooth="yes"/>
      <point x="524" y="106"/>
      <point x="492" y="151"/>
      <point x="510" y="234" type="curve" smooth="yes"/>
      <point x="612" y="710" type="line"/>
    </contour>
  </outline>
</glyph>
<glyph name="U.ss04" format="2">
  <advance width="1266"/>
  <note>
U.ss04
</note>
  <outline>
    <contour>
      <point x="510" y="234" type="curve" smooth="yes"/>
      <point x="612" y="710" type="line"/>
      <point x="475" y="710" type="line"/>
      <point x="377" y="251" type="line" smooth="yes"/>
      <point x="342" y="88"/>
      <point x="415" y="-14"/>
      <point x="606" y="-14" type="curve" smooth="yes"/>
      <point x="772" y="-14"/>
      <point x="843" y="52"/>
      <point x="878" y="218" type="curve" smooth="yes"/>
      <point x="983" y="710" type="line"/>
      <point x="846" y="710" type="line"/>
      <point x="743" y="227" type="line" smooth="yes"/>
      <point x="724" y="137"/>
      <point x="684" y="106"/>
      <point x="612" y="106" type="curve" smooth="yes"/>
      <point x="524" y="106"/>
      <point x="492" y="151"/>
    </contour>
    <contour>
      <point x="29" y="207" type="curve" smooth="yes"/>
      <point x="29" y="580"/>
      <point x="346" y="938"/>
      <point x="772" y="938" type="curve" smooth="yes"/>
      <point x="1077" y="938"/>
      <point x="1271" y="747"/>
      <point x="1271" y="459" type="curve" smooth="yes"/>
      <point x="1271" y="85"/>
      <point x="947" y="-271"/>
      <point x="525" y="-271" type="curve" smooth="yes"/>
      <point x="226" y="-271"/>
      <point x="29" y="-86"/>
    </contour>
  </outline>
</glyph>
<glyph name="V.ss04" format="2">
  <advance width="1266"/>
  <note>
V.ss04
</note>
  <outline>
    <contour>
      <point x="455" y="0" type="line"/>
      <point x="696" y="0" type="line"/>
      <point x="1032" y="710" type="line"/>
      <point x="890" y="710" type="line"/>
      <point x="615" y="120" type="line"/>
      <point x="585" y="120" type="line"/>
      <point x="575" y="710" type="line"/>
      <point x="441" y="710" type="line"/>
    </contour>
    <contour>
      <point x="29" y="207" type="curve" smooth="yes"/>
      <point x="29" y="580"/>
      <point x="346" y="938"/>
      <point x="772" y="938" type="curve" smooth="yes"/>
      <point x="1077" y="938"/>
      <point x="1271" y="747"/>
      <point x="1271" y="459" type="curve" smooth="yes"/>
      <point x="1271" y="85"/>
      <point x="947" y="-271"/>
      <point x="525" y="-271" type="curve" smooth="yes"/>
      <point x="226" y="-271"/>
      <point x="29" y="-86"/>
    </contour>
  </outline>
</glyph>
<glyph name="W.ss03" format="2">
  <advance width="1275"/>
  <note>
W.ss03
</note>
  <outline>
    <contour>
      <point x="440" y="118" type="line"/>
      <point x="551" y="700" type="line"/>
      <point x="421" y="700" type="line"/>
      <point x="316" y="0" type="line"/>
      <point x="535" y="0" type="line"/>
      <point x="688" y="529" type="line"/>
      <point x="616" y="0" type="line"/>
      <point x="836" y="0" type="line"/>
      <point x="1028" y="700" type="line"/>
      <point x="898" y="700" type="line"/>
      <point x="761" y="118" type="line"/>
      <point x="732" y="118" type="line"/>
      <point x="798" y="686" type="line"/>
      <point x="645" y="686" type="line"/>
      <point x="469" y="118" type="line"/>
    </contour>
    <contour>
      <point x="33" y="226" type="curve" smooth="yes"/>
      <point x="33" y="-83"/>
      <point x="243" y="-271"/>
      <point x="547" y="-271" type="curve" smooth="yes"/>
      <point x="974" y="-271"/>
      <point x="1275" y="76"/>
      <point x="1275" y="440" type="curve" smooth="yes"/>
      <point x="1275" y="750"/>
      <point x="1074" y="938"/>
      <point x="757" y="938" type="curve" smooth="yes"/>
      <point x="325" y="938"/>
      <point x="33" y="583"/>
    </contour>
    <contour>
      <point x="160" y="220" type="curve" smooth="yes"/>
      <point x="160" y="526"/>
      <point x="387" y="820"/>
      <point x="757" y="820" type="curve" smooth="yes"/>
      <point x="1000" y="820"/>
      <point x="1148" y="681"/>
      <point x="1148" y="444" type="curve" smooth="yes"/>
      <point x="1148" y="147"/>
      <point x="927" y="-153"/>
      <point x="550" y="-153" type="curve" smooth="yes"/>
      <point x="308" y="-153"/>
      <point x="160" y="-14"/>
    </contour>
  </outline>
</glyph>
<glyph name="W.ss04" format="2">
  <advance width="1266"/>
  <note>
W.ss04
</note>
  <outline>
    <contour>
      <point x="423" y="118" type="line"/>
      <point x="393" y="118" type="line"/>
      <point x="434" y="710" type="line"/>
      <point x="299" y="710" type="line"/>
      <point x="256" y="0" type="line"/>
      <point x="488" y="0" type="line"/>
      <point x="695" y="539" type="line"/>
      <point x="674" y="0" type="line"/>
      <point x="895" y="0" type="line"/>
      <point x="1162" y="710" type="line"/>
      <point x="1024" y="710" type="line"/>
      <point x="818" y="118" type="line"/>
      <point x="788" y="118" type="line"/>
      <point x="810" y="696" type="line"/>
      <point x="645" y="696" type="line"/>
    </contour>
    <contour>
      <point x="29" y="207" type="curve" smooth="yes"/>
      <point x="29" y="580"/>
      <point x="346" y="938"/>
      <point x="772" y="938" type="curve" smooth="yes"/>
      <point x="1077" y="938"/>
      <point x="1271" y="747"/>
      <point x="1271" y="459" type="curve" smooth="yes"/>
      <point x="1271" y="85"/>
      <point x="947" y="-271"/>
      <point x="525" y="-271" type="curve" smooth="yes"/>
      <point x="226" y="-271"/>
      <point x="29" y="-86"/>
    </contour>
  </outline>
</glyph>
<glyph name="X.ss03" format="2">
  <advance width="1275"/>
  <note>
X.ss03
</note>
  <outline>
    <contour>
      <point x="547" y="-271" type="curve" smooth="yes"/>
      <point x="974" y="-271"/>
      <point x="1275" y="76"/>
      <point x="1275" y="440" type="curve" smooth="yes"/>
      <point x="1275" y="750"/>
      <point x="1074" y="938"/>
      <point x="757" y="938" type="curve" smooth="yes"/>
      <point x="325" y="938"/>
      <point x="33" y="583"/>
      <point x="33" y="226" type="curve" smooth="yes"/>
      <point x="33" y="-83"/>
      <point x="243" y="-271"/>
    </contour>
    <contour>
      <point x="160" y="220" type="curve" smooth="yes"/>
      <point x="160" y="526"/>
      <point x="387" y="820"/>
      <point x="757" y="820" type="curve" smooth="yes"/>
      <point x="1000" y="820"/>
      <point x="1148" y="681"/>
      <point x="1148" y="444" type="curve" smooth="yes"/>
      <point x="1148" y="147"/>
      <point x="927" y="-153"/>
      <point x="550" y="-153" type="curve" smooth="yes"/>
      <point x="308" y="-153"/>
      <point x="160" y="-14"/>
    </contour>
    <contour>
      <point x="582" y="367" type="line"/>
      <point x="294" y="0" type="line"/>
      <point x="451" y="0" type="line"/>
      <point x="629" y="248" type="line"/>
      <point x="713" y="0" type="line"/>
      <point x="852" y="0" type="line"/>
      <point x="729" y="336" type="line"/>
      <point x="1026" y="710" type="line"/>
      <point x="874" y="714" type="line"/>
      <point x="682" y="454" type="line"/>
      <point x="593" y="710" type="line"/>
      <point x="454" y="710" type="line"/>
    </contour>
  </outline>
</glyph>
<glyph name="X.ss04" format="2">
  <advance width="1266"/>
  <note>
X.ss04
</note>
  <outline>
    <contour>
      <point x="454" y="710" type="line"/>
      <point x="582" y="367" type="line"/>
      <point x="294" y="0" type="line"/>
      <point x="451" y="0" type="line"/>
      <point x="629" y="248" type="line"/>
      <point x="713" y="0" type="line"/>
      <point x="852" y="0" type="line"/>
      <point x="729" y="336" type="line"/>
      <point x="1026" y="710" type="line"/>
      <point x="874" y="714" type="line"/>
      <point x="682" y="454" type="line"/>
      <point x="593" y="710" type="line"/>
    </contour>
    <contour>
      <point x="29" y="207" type="curve" smooth="yes"/>
      <point x="29" y="580"/>
      <point x="346" y="938"/>
      <point x="772" y="938" type="curve" smooth="yes"/>
      <point x="1077" y="938"/>
      <point x="1271" y="747"/>
      <point x="1271" y="459" type="curve" smooth="yes"/>
      <point x="1271" y="85"/>
      <point x="947" y="-271"/>
      <point x="525" y="-271" type="curve" smooth="yes"/>
      <point x="226" y="-271"/>
      <point x="29" y="-86"/>
    </contour>
  </outline>
</glyph>
<glyph name="Y.ss03" format="2">
  <advance width="1275"/>
  <note>
Y.ss03
</note>
  <outline>
    <contour>
      <point x="547" y="-271" type="curve" smooth="yes"/>
      <point x="974" y="-271"/>
      <point x="1275" y="76"/>
      <point x="1275" y="440" type="curve" smooth="yes"/>
      <point x="1275" y="750"/>
      <point x="1074" y="938"/>
      <point x="757" y="938" type="curve" smooth="yes"/>
      <point x="325" y="938"/>
      <point x="33" y="583"/>
      <point x="33" y="226" type="curve" smooth="yes"/>
      <point x="33" y="-83"/>
      <point x="243" y="-271"/>
    </contour>
    <contour>
      <point x="160" y="220" type="curve" smooth="yes"/>
      <point x="160" y="526"/>
      <point x="387" y="820"/>
      <point x="757" y="820" type="curve" smooth="yes"/>
      <point x="1000" y="820"/>
      <point x="1148" y="681"/>
      <point x="1148" y="444" type="curve" smooth="yes"/>
      <point x="1148" y="147"/>
      <point x="927" y="-153"/>
      <point x="550" y="-153" type="curve" smooth="yes"/>
      <point x="308" y="-153"/>
      <point x="160" y="-14"/>
    </contour>
    <contour>
      <point x="597" y="710" type="line"/>
      <point x="458" y="710" type="line"/>
      <point x="576" y="298" type="line"/>
      <point x="515" y="0" type="line"/>
      <point x="650" y="0" type="line"/>
      <point x="711" y="298" type="line"/>
      <point x="1002" y="710" type="line"/>
      <point x="845" y="710" type="line"/>
      <point x="667" y="434" type="line"/>
    </contour>
  </outline>
</glyph>
<glyph name="Y.ss05" format="2">
  <advance width="1222"/>
  <note>
Y.ss05
</note>
  <outline>
    <contour>
      <point x="-79" y="-230" type="line"/>
      <point x="163" y="904" type="line"/>
      <point x="1297" y="904" type="line"/>
      <point x="1055" y="-230" type="line"/>
    </contour>
    <contour>
      <point x="242" y="808" type="line"/>
      <point x="42" y="-134" type="line"/>
      <point x="976" y="-134" type="line"/>
      <point x="1176" y="808" type="line"/>
    </contour>
    <contour>
      <point x="569" y="710" type="line"/>
      <point x="430" y="710" type="line"/>
      <point x="548" y="298" type="line"/>
      <point x="487" y="0" type="line"/>
      <point x="622" y="0" type="line"/>
      <point x="683" y="298" type="line"/>
      <point x="974" y="710" type="line"/>
      <point x="817" y="710" type="line"/>
      <point x="639" y="434" type="line"/>
    </contour>
  </outline>
</glyph>
<glyph name="Z.ss03" format="2">
  <advance width="1275"/>
  <note>
Z.ss03
</note>
  <outline>
    <contour>
      <point x="547" y="-271" type="curve" smooth="yes"/>
      <point x="974" y="-271"/>
      <point x="1275" y="76"/>
      <point x="1275" y="440" type="curve" smooth="yes"/>
      <point x="1275" y="750"/>
      <point x="1074" y="938"/>
      <point x="757" y="938" type="curve" smooth="yes"/>
      <point x="325" y="938"/>
      <point x="33" y="583"/>
      <point x="33" y="226" type="curve" smooth="yes"/>
      <point x="33" y="-83"/>
      <point x="243" y="-271"/>
    </contour>
    <contour>
      <point x="160" y="220" type="curve" smooth="yes"/>
      <point x="160" y="526"/>
      <point x="387" y="820"/>
      <point x="757" y="820" type="curve" smooth="yes"/>
      <point x="1000" y="820"/>
      <point x="1148" y="681"/>
      <point x="1148" y="444" type="curve" smooth="yes"/>
      <point x="1148" y="147"/>
      <point x="927" y="-153"/>
      <point x="550" y="-153" type="curve" smooth="yes"/>
      <point x="308" y="-153"/>
      <point x="160" y="-14"/>
    </contour>
    <contour>
      <point x="378" y="119" type="line"/>
      <point x="353" y="0" type="line"/>
      <point x="799" y="0" type="line"/>
      <point x="824" y="120" type="line"/>
      <point x="550" y="120" type="line"/>
      <point x="555" y="145" type="line"/>
      <point x="912" y="590" type="line"/>
      <point x="938" y="710" type="line"/>
      <point x="502" y="710" type="line"/>
      <point x="476" y="590" type="line"/>
      <point x="743" y="590" type="line"/>
      <point x="737" y="565" type="line"/>
    </contour>
  </outline>
</glyph>
<glyph name="Z.ss04" format="2">
  <advance width="1266"/>
  <note>
Z.ss04
</note>
  <outline>
    <contour>
      <point x="912" y="590" type="line"/>
      <point x="938" y="710" type="line"/>
      <point x="502" y="710" type="line"/>
      <point x="476" y="590" type="line"/>
      <point x="743" y="590" type="line"/>
      <point x="737" y="565" type="line"/>
      <point x="378" y="119" type="line"/>
      <point x="353" y="0" type="line"/>
      <point x="799" y="0" type="line"/>
      <point x="824" y="120" type="line"/>
      <point x="550" y="120" type="line"/>
      <point x="555" y="145" type="line"/>
    </contour>
    <contour>
      <point x="29" y="207" type="curve" smooth="yes"/>
      <point x="29" y="580"/>
      <point x="346" y="938"/>
      <point x="772" y="938" type="curve" smooth="yes"/>
      <point x="1077" y="938"/>
      <point x="1271" y="747"/>
      <point x="1271" y="459" type="curve" smooth="yes"/>
      <point x="1271" y="85"/>
      <point x="947" y="-271"/>
      <point x="525" y="-271" type="curve" smooth="yes"/>
      <point x="226" y="-271"/>
      <point x="29" y="-86"/>
    </contour>
  </outline>
</glyph>
<glyph name="eight.ss03" format="2">
  <advance width="1275"/>
  <note>
eight.ss03
</note>
  <outline>
    <contour>
      <point x="547" y="-271" type="curve" smooth="yes"/>
      <point x="974" y="-271"/>
      <point x="1275" y="76"/>
      <point x="1275" y="440" type="curve" smooth="yes"/>
      <point x="1275" y="750"/>
      <point x="1074" y="938"/>
      <point x="757" y="938" type="curve" smooth="yes"/>
      <point x="325" y="938"/>
      <point x="33" y="583"/>
      <point x="33" y="226" type="curve" smooth="yes"/>
      <point x="33" y="-83"/>
      <point x="243" y="-271"/>
    </contour>
    <contour>
      <point x="160" y="220" type="curve" smooth="yes"/>
      <point x="160" y="526"/>
      <point x="387" y="820"/>
      <point x="757" y="820" type="curve" smooth="yes"/>
      <point x="1000" y="820"/>
      <point x="1148" y="681"/>
      <point x="1148" y="444" type="curve" smooth="yes"/>
      <point x="1148" y="147"/>
      <point x="927" y="-153"/>
      <point x="550" y="-153" type="curve" smooth="yes"/>
      <point x="308" y="-153"/>
      <point x="160" y="-14"/>
    </contour>
    <contour>
      <point x="369" y="154" type="curve" smooth="yes"/>
      <point x="369" y="55"/>
      <point x="449" y="-14"/>
      <point x="615" y="-14" type="curve" smooth="yes"/>
      <point x="793" y="-14"/>
      <point x="894" y="69"/>
      <point x="894" y="201" type="curve" smooth="yes"/>
      <point x="894" y="261"/>
      <point x="869" y="307"/>
      <point x="817" y="336" type="curve"/>
      <point x="896" y="362"/>
      <point x="928" y="443"/>
      <point x="928" y="514" type="curve" smooth="yes"/>
      <point x="928" y="605"/>
      <point x="852" y="682"/>
      <point x="706" y="682" type="curve" smooth="yes"/>
      <point x="552" y="682"/>
      <point x="444" y="599"/>
      <point x="444" y="467" type="curve" smooth="yes"/>
      <point x="444" y="424"/>
      <point x="461" y="373"/>
      <point x="501" y="340" type="curve"/>
      <point x="400" y="293"/>
      <point x="369" y="219"/>
    </contour>
    <contour>
      <point x="508" y="184" type="curve" smooth="yes"/>
      <point x="508" y="213"/>
      <point x="522" y="259"/>
      <point x="592" y="282" type="curve"/>
      <point x="692" y="282" type="line"/>
      <point x="740" y="268"/>
      <point x="756" y="241"/>
      <point x="756" y="207" type="curve" smooth="yes"/>
      <point x="756" y="145"/>
      <point x="712" y="108"/>
      <point x="623" y="108" type="curve" smooth="yes"/>
      <point x="540" y="108"/>
      <point x="508" y="142"/>
    </contour>
    <contour>
      <point x="574" y="465" type="curve" smooth="yes"/>
      <point x="574" y="507"/>
      <point x="599" y="562"/>
      <point x="698" y="562" type="curve" smooth="yes"/>
      <point x="771" y="562"/>
      <point x="798" y="532"/>
      <point x="798" y="491" type="curve" smooth="yes"/>
      <point x="798" y="458"/>
      <point x="782" y="418"/>
      <point x="716" y="395" type="curve"/>
      <point x="620" y="395" type="line"/>
      <point x="587" y="408"/>
      <point x="574" y="439"/>
    </contour>
  </outline>
</glyph>
<glyph name="eight.tosf" format="2">
  <advance width="560"/>
  <note>
eight.pnum
</note>
  <outline>
    <contour>
      <point x="238" y="-14" type="curve" smooth="yes"/>
      <point x="380" y="-14"/>
      <point x="480" y="39"/>
      <point x="480" y="162" type="curve" smooth="yes"/>
      <point x="480" y="211"/>
      <point x="457" y="241"/>
      <point x="417" y="266" type="curve"/>
      <point x="475" y="291"/>
      <point x="501" y="337"/>
      <point x="501" y="387" type="curve" smooth="yes"/>
      <point x="501" y="472"/>
      <point x="430" y="526"/>
      <point x="314" y="526" type="curve" smooth="yes"/>
      <point x="189" y="526"/>
      <point x="95" y="464"/>
      <point x="95" y="360" type="curve" smooth="yes"/>
      <point x="95" y="311"/>
      <point x="116" y="285"/>
      <point x="139" y="268" type="curve"/>
      <point x="72" y="234"/>
      <point x="33" y="195"/>
      <point x="33" y="123" type="curve" smooth="yes"/>
      <point x="33" y="47"/>
      <point x="97" y="-14"/>
    </contour>
    <contour>
      <point x="165" y="147" type="curve" smooth="yes"/>
      <point x="165" y="188"/>
      <point x="196" y="212"/>
      <point x="234" y="219" type="curve"/>
      <point x="304" y="219" type="line"/>
      <point x="333" y="213"/>
      <point x="348" y="196"/>
      <point x="348" y="166" type="curve" smooth="yes"/>
      <point x="348" y="112"/>
      <point x="304" y="91"/>
      <point x="246" y="91" type="curve" smooth="yes"/>
      <point x="190" y="91"/>
      <point x="165" y="111"/>
    </contour>
    <contour>
      <point x="219" y="353" type="curve" smooth="yes"/>
      <point x="219" y="395"/>
      <point x="250" y="421"/>
      <point x="309" y="421" type="curve" smooth="yes"/>
      <point x="361" y="421"/>
      <point x="378" y="399"/>
      <point x="378" y="367" type="curve" smooth="yes"/>
      <point x="378" y="338"/>
      <point x="353" y="314"/>
      <point x="322" y="304" type="curve"/>
      <point x="252" y="304" type="line"/>
      <point x="227" y="313"/>
      <point x="219" y="332"/>
    </contour>
  </outline>
</glyph>
<glyph name="five.ss03" format="2">
  <advance width="1275"/>
  <note>
five.ss03
</note>
  <outline>
    <contour>
      <point x="547" y="-271" type="curve" smooth="yes"/>
      <point x="974" y="-271"/>
      <point x="1275" y="76"/>
      <point x="1275" y="440" type="curve" smooth="yes"/>
      <point x="1275" y="750"/>
      <point x="1074" y="938"/>
      <point x="757" y="938" type="curve" smooth="yes"/>
      <point x="325" y="938"/>
      <point x="33" y="583"/>
      <point x="33" y="226" type="curve" smooth="yes"/>
      <point x="33" y="-83"/>
      <point x="243" y="-271"/>
    </contour>
    <contour>
      <point x="160" y="220" type="curve" smooth="yes"/>
      <point x="160" y="526"/>
      <point x="387" y="820"/>
      <point x="757" y="820" type="curve" smooth="yes"/>
      <point x="1000" y="820"/>
      <point x="1148" y="681"/>
      <point x="1148" y="444" type="curve" smooth="yes"/>
      <point x="1148" y="147"/>
      <point x="927" y="-153"/>
      <point x="550" y="-153" type="curve" smooth="yes"/>
      <point x="308" y="-153"/>
      <point x="160" y="-14"/>
    </contour>
    <contour>
      <point x="409" y="126" type="curve"/>
      <point x="375" y="18" type="line"/>
      <point x="375" y="18"/>
      <point x="476" y="-14"/>
      <point x="583" y="-14" type="curve" smooth="yes"/>
      <point x="775" y="-14"/>
      <point x="867" y="100"/>
      <point x="867" y="241" type="curve" smooth="yes"/>
      <point x="867" y="373"/>
      <point x="799" y="426"/>
      <point x="688" y="426" type="curve" smooth="yes"/>
      <point x="623" y="426"/>
      <point x="562" y="400"/>
      <point x="562" y="400" type="curve"/>
      <point x="614" y="550" type="line"/>
      <point x="901" y="550" type="line"/>
      <point x="926" y="670" type="line"/>
      <point x="534" y="670" type="line"/>
      <point x="440" y="313" type="line"/>
      <point x="527" y="296" type="line"/>
      <point x="527" y="296"/>
      <point x="578" y="318"/>
      <point x="631" y="318" type="curve" smooth="yes"/>
      <point x="699" y="318"/>
      <point x="728" y="282"/>
      <point x="728" y="219" type="curve" smooth="yes"/>
      <point x="728" y="156"/>
      <point x="683" y="105"/>
      <point x="569" y="105" type="curve" smooth="yes"/>
      <point x="501" y="105"/>
      <point x="409" y="126"/>
    </contour>
  </outline>
</glyph>
<glyph name="five.tosf" format="2">
  <advance width="560"/>
  <note>
five.pnum
</note>
  <outline>
    <contour>
      <point x="247" y="390" type="line"/>
      <point x="507" y="390" type="line"/>
      <point x="534" y="510" type="line"/>
      <point x="165" y="510" type="line"/>
      <point x="80" y="216" type="line"/>
      <point x="175" y="197" type="line"/>
      <point x="175" y="197"/>
      <point x="228" y="218"/>
      <point x="281" y="218" type="curve" smooth="yes"/>
      <point x="317" y="218"/>
      <point x="344" y="207"/>
      <point x="344" y="170" type="curve" smooth="yes"/>
      <point x="344" y="122"/>
      <point x="309" y="97"/>
      <point x="252" y="97" type="curve" smooth="yes"/>
      <point x="178" y="97"/>
      <point x="64" y="124"/>
      <point x="64" y="124" type="curve"/>
      <point x="26" y="18" type="line"/>
      <point x="26" y="18"/>
      <point x="141" y="-14"/>
      <point x="234" y="-14" type="curve" smooth="yes"/>
      <point x="392" y="-14"/>
      <point x="486" y="57"/>
      <point x="486" y="188" type="curve" smooth="yes"/>
      <point x="486" y="265"/>
      <point x="427" y="320"/>
      <point x="331" y="320" type="curve" smooth="yes"/>
      <point x="263" y="320"/>
      <point x="216" y="302"/>
      <point x="216" y="302" type="curve"/>
    </contour>
  </outline>
</glyph>
<glyph name="four.ss05" format="2">
  <advance width="1183"/>
  <note>
four.ss05
</note>
  <outline>
    <contour>
      <point x="-79" y="-230" type="line"/>
      <point x="163" y="904" type="line"/>
      <point x="1297" y="904" type="line"/>
      <point x="1055" y="-230" type="line"/>
    </contour>
    <contour>
      <point x="242" y="808" type="line"/>
      <point x="42" y="-134" type="line"/>
      <point x="976" y="-134" type="line"/>
      <point x="1176" y="808" type="line"/>
    </contour>
    <contour>
      <point x="345" y="214" type="line"/>
      <point x="322" y="109" type="line"/>
      <point x="597" y="109" type="line"/>
      <point x="574" y="0" type="line"/>
      <point x="709" y="0" type="line"/>
      <point x="732" y="109" type="line"/>
      <point x="794" y="109" type="line"/>
      <point x="819" y="229" type="line"/>
      <point x="753" y="229" type="line"/>
      <point x="793" y="414" type="line"/>
      <point x="664" y="414" type="line"/>
      <point x="624" y="229" type="line"/>
      <point x="478" y="229" type="line"/>
      <point x="750" y="670" type="line"/>
      <point x="599" y="670" type="line"/>
    </contour>
  </outline>
</glyph>
<glyph name="four.tosf" format="2">
  <advance width="560"/>
  <note>
four.pnum
</note>
  <outline>
    <contour>
      <point x="67" y="187" type="line"/>
      <point x="48" y="97" type="line"/>
      <point x="307" y="97" type="line"/>
      <point x="289" y="0" type="line"/>
      <point x="414" y="0" type="line"/>
      <point x="432" y="97" type="line"/>
      <point x="473" y="97" type="line"/>
      <point x="497" y="211" type="line"/>
      <point x="456" y="211" type="line"/>
      <point x="481" y="326" type="line"/>
      <point x="356" y="326" type="line"/>
      <point x="331" y="211" type="line"/>
      <point x="204" y="211" type="line"/>
      <point x="400" y="510" type="line"/>
      <point x="262" y="510" type="line"/>
    </contour>
  </outline>
</glyph>
<glyph name="nine.ss03" format="2">
  <advance width="1275"/>
  <note>
nine.ss03
</note>
  <outline>
    <contour>
      <point x="547" y="-271" type="curve" smooth="yes"/>
      <point x="974" y="-271"/>
      <point x="1275" y="76"/>
      <point x="1275" y="440" type="curve" smooth="yes"/>
      <point x="1275" y="750"/>
      <point x="1074" y="938"/>
      <point x="757" y="938" type="curve" smooth="yes"/>
      <point x="325" y="938"/>
      <point x="33" y="583"/>
      <point x="33" y="226" type="curve" smooth="yes"/>
      <point x="33" y="-83"/>
      <point x="243" y="-271"/>
    </contour>
    <contour>
      <point x="160" y="220" type="curve" smooth="yes"/>
      <point x="160" y="526"/>
      <point x="387" y="820"/>
      <point x="757" y="820" type="curve" smooth="yes"/>
      <point x="1000" y="820"/>
      <point x="1148" y="681"/>
      <point x="1148" y="444" type="curve" smooth="yes"/>
      <point x="1148" y="147"/>
      <point x="927" y="-153"/>
      <point x="550" y="-153" type="curve" smooth="yes"/>
      <point x="308" y="-153"/>
      <point x="160" y="-14"/>
    </contour>
    <contour>
      <point x="423" y="115" type="curve"/>
      <point x="389" y="9" type="line"/>
      <point x="389" y="9"/>
      <point x="505" y="-14"/>
      <point x="588" y="-14" type="curve" smooth="yes"/>
      <point x="853" y="-14"/>
      <point x="918" y="264"/>
      <point x="918" y="431" type="curve" smooth="yes"/>
      <point x="918" y="580"/>
      <point x="852" y="682"/>
      <point x="696" y="682" type="curve" smooth="yes"/>
      <point x="529" y="682"/>
      <point x="445" y="567"/>
      <point x="445" y="442" type="curve" smooth="yes"/>
      <point x="445" y="330"/>
      <point x="513" y="257"/>
      <point x="628" y="257" type="curve" smooth="yes"/>
      <point x="691" y="257"/>
      <point x="757" y="279"/>
      <point x="757" y="279" type="curve"/>
      <point x="734" y="188"/>
      <point x="713" y="106"/>
      <point x="569" y="106" type="curve" smooth="yes"/>
      <point x="529" y="106"/>
      <point x="423" y="115"/>
    </contour>
    <contour>
      <point x="582" y="450" type="curve" smooth="yes"/>
      <point x="582" y="507"/>
      <point x="614" y="564"/>
      <point x="691" y="564" type="curve" smooth="yes"/>
      <point x="756" y="564"/>
      <point x="786" y="523"/>
      <point x="786" y="462" type="curve" smooth="yes"/>
      <point x="786" y="440"/>
      <point x="783" y="412"/>
      <point x="778" y="387" type="curve"/>
      <point x="778" y="387"/>
      <point x="714" y="369"/>
      <point x="663" y="369" type="curve" smooth="yes"/>
      <point x="611" y="369"/>
      <point x="582" y="397"/>
    </contour>
  </outline>
</glyph>
<glyph name="nine.tosf" format="2">
  <advance width="560"/>
  <note>
nine.pnum
</note>
  <outline>
    <contour>
      <point x="75" y="105" type="curve"/>
      <point x="44" y="1" type="line"/>
      <point x="44" y="1"/>
      <point x="128" y="-14"/>
      <point x="192" y="-14" type="curve" smooth="yes"/>
      <point x="398" y="-14"/>
      <point x="502" y="125"/>
      <point x="502" y="322" type="curve" smooth="yes"/>
      <point x="502" y="460"/>
      <point x="423" y="526"/>
      <point x="301" y="526" type="curve" smooth="yes"/>
      <point x="162" y="526"/>
      <point x="78" y="441"/>
      <point x="78" y="334" type="curve" smooth="yes"/>
      <point x="78" y="236"/>
      <point x="151" y="202"/>
      <point x="234" y="202" type="curve" smooth="yes"/>
      <point x="289" y="202"/>
      <point x="326" y="217"/>
      <point x="358" y="229" type="curve"/>
      <point x="339" y="128"/>
      <point x="294" y="96"/>
      <point x="224" y="96" type="curve" smooth="yes"/>
      <point x="181" y="96"/>
      <point x="75" y="105"/>
    </contour>
    <contour>
      <point x="207" y="349" type="curve" smooth="yes"/>
      <point x="207" y="392"/>
      <point x="249" y="421"/>
      <point x="302" y="421" type="curve" smooth="yes"/>
      <point x="374" y="421"/>
      <point x="387" y="367"/>
      <point x="378" y="319" type="curve"/>
      <point x="378" y="319"/>
      <point x="324" y="297"/>
      <point x="277" y="297" type="curve" smooth="yes"/>
      <point x="246" y="297"/>
      <point x="207" y="307"/>
    </contour>
  </outline>
</glyph>
<glyph name="one.ss05" format="2">
  <advance width="1183"/>
  <note>
one.ss05
</note>
  <outline>
    <contour>
      <point x="-79" y="-230" type="line"/>
      <point x="163" y="904" type="line"/>
      <point x="1297" y="904" type="line"/>
      <point x="1055" y="-230" type="line"/>
    </contour>
    <contour>
      <point x="242" y="808" type="line"/>
      <point x="42" y="-134" type="line"/>
      <point x="976" y="-134" type="line"/>
      <point x="1176" y="808" type="line"/>
    </contour>
    <contour>
      <point x="657" y="670" type="line"/>
      <point x="412" y="525" type="line"/>
      <point x="453" y="421" type="line"/>
      <point x="614" y="514" type="line"/>
      <point x="504" y="0" type="line"/>
      <point x="638" y="0" type="line"/>
      <point x="780" y="670" type="line"/>
    </contour>
  </outline>
</glyph>
<glyph name="one.ss06" format="2">
  <advance width="1183"/>
  <note>
one.ss06
</note>
  <outline>
    <contour>
      <point x="-79" y="-230" type="line"/>
      <point x="163" y="904" type="line"/>
      <point x="1297" y="904" type="line"/>
      <point x="1055" y="-230" type="line"/>
    </contour>
    <contour>
      <point x="657" y="670" type="line"/>
      <point x="412" y="525" type="line"/>
      <point x="453" y="421" type="line"/>
      <point x="614" y="514" type="line"/>
      <point x="504" y="0" type="line"/>
      <point x="638" y="0" type="line"/>
      <point x="780" y="670" type="line"/>
    </contour>
  </outline>
</glyph>
<glyph name="one.tf" format="2">
  <advance width="560"/>
  <note>
one.tf
</note>
  <outline>
    <contour>
      <point x="289" y="514" type="line"/>
      <point x="180" y="0" type="line"/>
      <point x="313" y="0" type="line"/>
      <point x="455" y="670" type="line"/>
      <point x="331" y="670" type="line"/>
      <point x="87" y="525" type="line"/>
      <point x="128" y="421" type="line"/>
    </contour>
  </outline>
</glyph>
<glyph name="one.tosf" format="2">
  <advance width="560"/>
  <note>
one.pnum
</note>
  <outline>
    <contour>
      <point x="353" y="0" type="line"/>
      <point x="459" y="500" type="line"/>
      <point x="351" y="500" type="line"/>
      <point x="112" y="379" type="line"/>
      <point x="137" y="278" type="line"/>
      <point x="300" y="355" type="line"/>
      <point x="225" y="0" type="line"/>
    </contour>
  </outline>
</glyph>
<glyph name="seven.osf" format="2">
  <advance width="423"/>
  <note>
seven.pnum
</note>
  <outline>
    <contour>
      <point x="417" y="377" type="line"/>
      <point x="445" y="510" type="line"/>
      <point x="78" y="510" type="line"/>
      <point x="54" y="400" type="line"/>
      <point x="302" y="400" type="line"/>
      <point x="298" y="377" type="line"/>
      <point x="39" y="20" type="line"/>
      <point x="132" y="-23" type="line"/>
    </contour>
  </outline>
</glyph>
<glyph name="seven.ss03" format="2">
  <advance width="1275"/>
  <note>
seven.ss03
</note>
  <outline>
    <contour>
      <point x="547" y="-271" type="curve" smooth="yes"/>
      <point x="974" y="-271"/>
      <point x="1275" y="76"/>
      <point x="1275" y="440" type="curve" smooth="yes"/>
      <point x="1275" y="750"/>
      <point x="1074" y="938"/>
      <point x="757" y="938" type="curve" smooth="yes"/>
      <point x="325" y="938"/>
      <point x="33" y="583"/>
      <point x="33" y="226" type="curve" smooth="yes"/>
      <point x="33" y="-83"/>
      <point x="243" y="-271"/>
    </contour>
    <contour>
      <point x="160" y="220" type="curve" smooth="yes"/>
      <point x="160" y="526"/>
      <point x="387" y="820"/>
      <point x="757" y="820" type="curve" smooth="yes"/>
      <point x="1000" y="820"/>
      <point x="1148" y="681"/>
      <point x="1148" y="444" type="curve" smooth="yes"/>
      <point x="1148" y="147"/>
      <point x="927" y="-153"/>
      <point x="550" y="-153" type="curve" smooth="yes"/>
      <point x="308" y="-153"/>
      <point x="160" y="-14"/>
    </contour>
    <contour>
      <point x="760" y="522" type="line"/>
      <point x="460" y="48" type="line"/>
      <point x="569" y="-16" type="line"/>
      <point x="902" y="521" type="line"/>
      <point x="934" y="670" type="line"/>
      <point x="513" y="670" type="line"/>
      <point x="487" y="547" type="line"/>
      <point x="766" y="547" type="line"/>
    </contour>
  </outline>
</glyph>
<glyph name="seven.ss05" format="2">
  <advance width="1183"/>
  <note>
seven.ss05
</note>
  <outline>
    <contour>
      <point x="-79" y="-230" type="line"/>
      <point x="163" y="904" type="line"/>
      <point x="1297" y="904" type="line"/>
      <point x="1055" y="-230" type="line"/>
    </contour>
    <contour>
      <point x="242" y="808" type="line"/>
      <point x="42" y="-134" type="line"/>
      <point x="976" y="-134" type="line"/>
      <point x="1176" y="808" type="line"/>
    </contour>
    <contour>
      <point x="711" y="522" type="line"/>
      <point x="411" y="48" type="line"/>
      <point x="520" y="-16" type="line"/>
      <point x="853" y="521" type="line"/>
      <point x="885" y="670" type="line"/>
      <point x="464" y="670" type="line"/>
      <point x="438" y="547" type="line"/>
      <point x="717" y="547" type="line"/>
    </contour>
  </outline>
</glyph>
<glyph name="seven.ss06" format="2">
  <advance width="1183"/>
  <note>
seven.ss06
</note>
  <outline>
    <contour>
      <point x="-79" y="-230" type="line"/>
      <point x="163" y="904" type="line"/>
      <point x="1297" y="904" type="line"/>
      <point x="1055" y="-230" type="line"/>
    </contour>
    <contour>
      <point x="711" y="522" type="line"/>
      <point x="411" y="48" type="line"/>
      <point x="520" y="-16" type="line"/>
      <point x="853" y="521" type="line"/>
      <point x="885" y="670" type="line"/>
      <point x="464" y="670" type="line"/>
      <point x="438" y="547" type="line"/>
      <point x="717" y="547" type="line"/>
    </contour>
  </outline>
</glyph>
<glyph name="seven.tosf" format="2">
  <advance width="560"/>
  <note>
seven.pnum
</note>
  <outline>
    <contour>
      <point x="487" y="377" type="line"/>
      <point x="515" y="510" type="line"/>
      <point x="148" y="510" type="line"/>
      <point x="124" y="400" type="line"/>
      <point x="372" y="400" type="line"/>
      <point x="368" y="377" type="line"/>
      <point x="109" y="20" type="line"/>
      <point x="202" y="-23" type="line"/>
    </contour>
  </outline>
</glyph>
<glyph name="six.tosf" format="2">
  <advance width="560"/>
  <note>
six.pnum
</note>
  <outline>
    <contour>
      <point x="497" y="407" type="curve"/>
      <point x="528" y="511" type="line"/>
      <point x="528" y="511"/>
      <point x="444" y="526"/>
      <point x="380" y="526" type="curve" smooth="yes"/>
      <point x="164" y="526"/>
      <point x="66" y="347"/>
      <point x="66" y="190" type="curve" smooth="yes"/>
      <point x="66" y="52"/>
      <point x="145" y="-14"/>
      <point x="267" y="-14" type="curve" smooth="yes"/>
      <point x="406" y="-14"/>
      <point x="490" y="71"/>
      <point x="490" y="178" type="curve" smooth="yes"/>
      <point x="490" y="276"/>
      <point x="417" y="310"/>
      <point x="334" y="310" type="curve" smooth="yes"/>
      <point x="279" y="310"/>
      <point x="242" y="295"/>
      <point x="210" y="283" type="curve"/>
      <point x="229" y="384"/>
      <point x="278" y="416"/>
      <point x="348" y="416" type="curve" smooth="yes"/>
      <point x="391" y="416"/>
      <point x="497" y="407"/>
    </contour>
    <contour>
      <point x="190" y="193" type="curve"/>
      <point x="190" y="193"/>
      <point x="244" y="215"/>
      <point x="291" y="215" type="curve" smooth="yes"/>
      <point x="322" y="215"/>
      <point x="361" y="205"/>
      <point x="361" y="163" type="curve" smooth="yes"/>
      <point x="361" y="120"/>
      <point x="319" y="91"/>
      <point x="266" y="91" type="curve" smooth="yes"/>
      <point x="194" y="91"/>
      <point x="181" y="145"/>
    </contour>
  </outline>
</glyph>
<glyph name="three.ss03" format="2">
  <advance width="1275"/>
  <note>
three.ss03
</note>
  <outline>
    <contour>
      <point x="547" y="-271" type="curve" smooth="yes"/>
      <point x="974" y="-271"/>
      <point x="1275" y="76"/>
      <point x="1275" y="440" type="curve" smooth="yes"/>
      <point x="1275" y="750"/>
      <point x="1074" y="938"/>
      <point x="757" y="938" type="curve" smooth="yes"/>
      <point x="325" y="938"/>
      <point x="33" y="583"/>
      <point x="33" y="226" type="curve" smooth="yes"/>
      <point x="33" y="-83"/>
      <point x="243" y="-271"/>
    </contour>
    <contour>
      <point x="160" y="220" type="curve" smooth="yes"/>
      <point x="160" y="526"/>
      <point x="387" y="820"/>
      <point x="757" y="820" type="curve" smooth="yes"/>
      <point x="1000" y="820"/>
      <point x="1148" y="681"/>
      <point x="1148" y="444" type="curve" smooth="yes"/>
      <point x="1148" y="147"/>
      <point x="927" y="-153"/>
      <point x="550" y="-153" type="curve" smooth="yes"/>
      <point x="308" y="-153"/>
      <point x="160" y="-14"/>
    </contour>
    <contour>
      <point x="408" y="127" type="curve"/>
      <point x="378" y="22" type="line"/>
      <point x="378" y="22"/>
      <point x="480" y="-14"/>
      <point x="588" y="-14" type="curve" smooth="yes"/>
      <point x="779" y="-14"/>
      <point x="850" y="91"/>
      <point x="850" y="203" type="curve" smooth="yes"/>
      <point x="850" y="281"/>
      <point x="817" y="323"/>
      <point x="767" y="339" type="curve"/>
      <point x="862" y="374"/>
      <point x="887" y="462"/>
      <point x="887" y="520" type="curve" smooth="yes"/>
      <point x="887" y="616"/>
      <point x="826" y="682"/>
      <point x="691" y="682" type="curve" smooth="yes"/>
      <point x="611" y="682"/>
      <point x="505" y="659"/>
      <point x="505" y="659" type="curve"/>
      <point x="492" y="549" type="line"/>
      <point x="492" y="549"/>
      <point x="598" y="562"/>
      <point x="664" y="562" type="curve" smooth="yes"/>
      <point x="729" y="562"/>
      <point x="757" y="536"/>
      <point x="757" y="481" type="curve" smooth="yes"/>
      <point x="757" y="432"/>
      <point x="725" y="394"/>
      <point x="655" y="394" type="curve" smooth="yes"/>
      <point x="525" y="394" type="line"/>
      <point x="500" y="280" type="line"/>
      <point x="631" y="280" type="line" smooth="yes"/>
      <point x="685" y="280"/>
      <point x="710" y="254"/>
      <point x="710" y="203" type="curve" smooth="yes"/>
      <point x="710" y="130"/>
      <point x="658" y="106"/>
      <point x="584" y="106" type="curve" smooth="yes"/>
      <point x="516" y="106"/>
      <point x="408" y="127"/>
    </contour>
  </outline>
</glyph>
<glyph name="three.tosf" format="2">
  <advance width="560"/>
  <note>
three.pnum
</note>
  <outline>
    <contour>
      <point x="137" y="507" type="curve"/>
      <point x="125" y="395" type="line"/>
      <point x="125" y="395"/>
      <point x="220" y="406"/>
      <point x="282" y="406" type="curve" smooth="yes"/>
      <point x="342" y="406"/>
      <point x="364" y="399"/>
      <point x="364" y="368" type="curve" smooth="yes"/>
      <point x="364" y="339"/>
      <point x="340" y="323"/>
      <point x="290" y="323" type="curve" smooth="yes"/>
      <point x="159" y="323" type="line"/>
      <point x="137" y="221" type="line"/>
      <point x="268" y="221" type="line" smooth="yes"/>
      <point x="315" y="221"/>
      <point x="339" y="212"/>
      <point x="339" y="174" type="curve" smooth="yes"/>
      <point x="339" y="131"/>
      <point x="313" y="111"/>
      <point x="238" y="111" type="curve" smooth="yes"/>
      <point x="174" y="111"/>
      <point x="67" y="127"/>
      <point x="67" y="127" type="curve"/>
      <point x="27" y="13" type="line"/>
      <point x="27" y="13"/>
      <point x="146" y="-14"/>
      <point x="229" y="-14" type="curve" smooth="yes"/>
      <point x="381" y="-14"/>
      <point x="479" y="55"/>
      <point x="479" y="173" type="curve" smooth="yes"/>
      <point x="479" y="233"/>
      <point x="449" y="269"/>
      <point x="406" y="279" type="curve"/>
      <point x="479" y="309"/>
      <point x="508" y="362"/>
      <point x="508" y="413" type="curve" smooth="yes"/>
      <point x="508" y="498"/>
      <point x="440" y="526"/>
      <point x="336" y="526" type="curve" smooth="yes"/>
      <point x="250" y="526"/>
      <point x="137" y="507"/>
    </contour>
  </outline>
</glyph>
<glyph name="two.ss03" format="2">
  <advance width="1275"/>
  <note>
two.ss03
</note>
  <outline>
    <contour>
      <point x="547" y="-271" type="curve" smooth="yes"/>
      <point x="974" y="-271"/>
      <point x="1275" y="76"/>
      <point x="1275" y="440" type="curve" smooth="yes"/>
      <point x="1275" y="750"/>
      <point x="1074" y="938"/>
      <point x="757" y="938" type="curve" smooth="yes"/>
      <point x="325" y="938"/>
      <point x="33" y="583"/>
      <point x="33" y="226" type="curve" smooth="yes"/>
      <point x="33" y="-83"/>
      <point x="243" y="-271"/>
    </contour>
    <contour>
      <point x="160" y="220" type="curve" smooth="yes"/>
      <point x="160" y="526"/>
      <point x="387" y="820"/>
      <point x="757" y="820" type="curve" smooth="yes"/>
      <point x="1000" y="820"/>
      <point x="1148" y="681"/>
      <point x="1148" y="444" type="curve" smooth="yes"/>
      <point x="1148" y="147"/>
      <point x="927" y="-153"/>
      <point x="550" y="-153" type="curve" smooth="yes"/>
      <point x="308" y="-153"/>
      <point x="160" y="-14"/>
    </contour>
    <contour>
      <point x="401" y="117" type="line"/>
      <point x="376" y="0" type="line"/>
      <point x="795" y="0" type="line"/>
      <point x="821" y="120" type="line"/>
      <point x="552" y="120" type="line"/>
      <point x="687" y="234" type="line" smooth="yes"/>
      <point x="797" y="327"/>
      <point x="884" y="399"/>
      <point x="884" y="524" type="curve" smooth="yes"/>
      <point x="884" y="625"/>
      <point x="834" y="682"/>
      <point x="698" y="682" type="curve" smooth="yes"/>
      <point x="604" y="682"/>
      <point x="516" y="652"/>
      <point x="516" y="652" type="curve"/>
      <point x="500" y="545" type="line"/>
      <point x="500" y="545"/>
      <point x="590" y="560"/>
      <point x="648" y="560" type="curve" smooth="yes"/>
      <point x="720" y="560"/>
      <point x="749" y="538"/>
      <point x="749" y="493" type="curve" smooth="yes"/>
      <point x="749" y="408"/>
      <point x="659" y="352"/>
      <point x="569" y="270" type="curve" smooth="yes"/>
    </contour>
  </outline>
</glyph>
<glyph name="two.tosf" format="2">
  <advance width="560"/>
  <note>
two.pnum
</note>
  <outline>
    <contour>
      <point x="233" y="236" type="curve" smooth="yes"/>
      <point x="55" y="109" type="line"/>
      <point x="32" y="0" type="line"/>
      <point x="433" y="0" type="line"/>
      <point x="457" y="115" type="line"/>
      <point x="236" y="115" type="line"/>
      <point x="353" y="193" type="line" smooth="yes"/>
      <point x="444" y="254"/>
      <point x="508" y="299"/>
      <point x="508" y="395" type="curve" smooth="yes"/>
      <point x="508" y="487"/>
      <point x="444" y="526"/>
      <point x="339" y="526" type="curve" smooth="yes"/>
      <point x="260" y="526"/>
      <point x="136" y="505"/>
      <point x="136" y="505" type="curve"/>
      <point x="119" y="391" type="line"/>
      <point x="119" y="391"/>
      <point x="216" y="407"/>
      <point x="283" y="407" type="curve" smooth="yes"/>
      <point x="329" y="407"/>
      <point x="363" y="398"/>
      <point x="363" y="362" type="curve" smooth="yes"/>
      <point x="363" y="320"/>
      <point x="320" y="298"/>
    </contour>
  </outline>
</glyph>
<glyph name="uni013C.ss02" format="2">
  <advance width="255"/>
  <note>
uni013C.ss02
</note>
  <outline>
    <contour>
      <point x="163" y="730" type="line"/>
      <point x="9" y="0" type="line"/>
      <point x="140" y="0" type="line"/>
      <point x="294" y="730" type="line"/>
    </contour>
    <contour>
      <point x="55" y="-69" type="line"/>
      <point x="-36" y="-239" type="line"/>
      <point x="37" y="-282" type="line"/>
      <point x="146" y="-125" type="line"/>
    </contour>
  </outline>
</glyph>
<glyph name="uni0304.case" format="2">
  <advance width="0"/>
  <note>
uni0304.case
</note>
  <outline>
    <contour>
      <point x="400" y="787" type="line"/>
      <point x="422" y="887" type="line"/>
      <point x="135" y="887" type="line"/>
      <point x="113" y="787" type="line"/>
    </contour>
  </outline>
</glyph>
<glyph name="uni0307.case" format="2">
  <advance width="0"/>
  <note>
uni0307.case
</note>
  <outline>
    <contour>
      <point x="245" y="777" type="line"/>
      <point x="275" y="920" type="line"/>
      <point x="141" y="920" type="line"/>
      <point x="111" y="777" type="line"/>
    </contour>
  </outline>
</glyph>
<glyph name="uni0307.i" format="2">
  <advance width="0"/>
  <note>
uni0307.i
</note>
  <outline>
    <contour>
      <point x="202" y="564" type="line"/>
      <point x="230" y="700" type="line"/>
      <point x="96" y="700" type="line"/>
      <point x="68" y="564" type="line"/>
    </contour>
  </outline>
</glyph>
<glyph name="uni0308.case" format="2">
  <advance width="0"/>
  <note>
uni0308.case
</note>
  <outline>
    <contour>
      <point x="239" y="777" type="line"/>
      <point x="267" y="910" type="line"/>
      <point x="139" y="910" type="line"/>
      <point x="111" y="777" type="line"/>
    </contour>
    <contour>
      <point x="355" y="910" type="line"/>
      <point x="327" y="777" type="line"/>
      <point x="455" y="777" type="line"/>
      <point x="483" y="910" type="line"/>
    </contour>
  </outline>
</glyph>
<glyph name="uni0312.case" format="2">
  <advance width="0"/>
  <note>
uni0312.case
</note>
  <outline>
    <contour>
      <point x="273" y="952" type="line"/>
      <point x="119" y="816" type="line"/>
      <point x="189" y="763" type="line"/>
      <point x="328" y="909" type="line"/>
    </contour>
  </outline>
</glyph>
<glyph name="uni0313.case" format="2">
  <advance width="0"/>
  <note>
uni0313.case
</note>
  <outline>
    <contour>
      <point x="181" y="763" type="line"/>
      <point x="306" y="899" type="line"/>
      <point x="225" y="952" type="line"/>
      <point x="117" y="806" type="line"/>
    </contour>
  </outline>
</glyph>
<glyph name="uni0335.case" format="2">
  <advance width="0"/>
  <note>
uni0335.case
</note>
  <outline>
    <contour>
      <point x="335" y="298" type="line"/>
      <point x="359" y="412" type="line"/>
      <point x="12" y="412" type="line"/>
      <point x="-12" y="298" type="line"/>
    </contour>
  </outline>
</glyph>
<glyph name="uni1E3B.ss02" format="2">
  <advance width="255"/>
  <note>
uni1E3B.ss02
</note>
  <outline>
    <contour>
      <point x="163" y="730" type="line"/>
      <point x="9" y="0" type="line"/>
      <point x="140" y="0" type="line"/>
      <point x="294" y="730" type="line"/>
    </contour>
    <contour>
      <point x="-86" y="-84" type="line"/>
      <point x="-108" y="-184" type="line"/>
      <point x="179" y="-184" type="line"/>
      <point x="201" y="-84" type="line"/>
    </contour>
  </outline>
</glyph>
<glyph name="zero.ss03" format="2">
  <advance width="1275"/>
  <note>
zero.ss03
</note>
  <outline>
    <contour>
      <point x="547" y="-271" type="curve" smooth="yes"/>
      <point x="974" y="-271"/>
      <point x="1275" y="76"/>
      <point x="1275" y="440" type="curve" smooth="yes"/>
      <point x="1275" y="750"/>
      <point x="1074" y="938"/>
      <point x="757" y="938" type="curve" smooth="yes"/>
      <point x="325" y="938"/>
      <point x="33" y="583"/>
      <point x="33" y="226" type="curve" smooth="yes"/>
      <point x="33" y="-83"/>
      <point x="243" y="-271"/>
    </contour>
    <contour>
      <point x="160" y="220" type="curve" smooth="yes"/>
      <point x="160" y="526"/>
      <point x="387" y="820"/>
      <point x="757" y="820" type="curve" smooth="yes"/>
      <point x="1000" y="820"/>
      <point x="1148" y="681"/>
      <point x="1148" y="444" type="curve" smooth="yes"/>
      <point x="1148" y="147"/>
      <point x="927" y="-153"/>
      <point x="550" y="-153" type="curve" smooth="yes"/>
      <point x="308" y="-153"/>
      <point x="160" y="-14"/>
    </contour>
    <contour>
      <point x="393" y="221" type="curve" smooth="yes"/>
      <point x="393" y="59"/>
      <point x="474" y="-19"/>
      <point x="610" y="-14" type="curve" smooth="yes"/>
      <point x="865" y="-4"/>
      <point x="925" y="281"/>
      <point x="925" y="446" type="curve" smooth="yes"/>
      <point x="925" y="610"/>
      <point x="845" y="682"/>
      <point x="721" y="682" type="curve" smooth="yes"/>
      <point x="452" y="682"/>
      <point x="393" y="383"/>
    </contour>
    <contour>
      <point x="530" y="211" type="curve" smooth="yes"/>
      <point x="530" y="342"/>
      <point x="561" y="562"/>
      <point x="704" y="562" type="curve" smooth="yes"/>
      <point x="765" y="562"/>
      <point x="790" y="528"/>
      <point x="790" y="456" type="curve" smooth="yes"/>
      <point x="790" y="348"/>
      <point x="760" y="106"/>
      <point x="619" y="106" type="curve" smooth="yes"/>
      <point x="564" y="106"/>
      <point x="530" y="138"/>
    </contour>
  </outline>
</glyph>
<glyph name="zero.tosf" format="2">
  <advance width="560"/>
  <note>
zero.pnum
</note>
  <outline>
    <contour>
      <point x="330" y="526" type="curve" smooth="yes"/>
      <point x="98" y="526"/>
      <point x="42" y="304"/>
      <point x="42" y="160" type="curve" smooth="yes"/>
      <point x="42" y="38"/>
      <point x="121" y="-14"/>
      <point x="232" y="-14" type="curve" smooth="yes"/>
      <point x="489" y="-14"/>
      <point x="518" y="246"/>
      <point x="518" y="351" type="curve" smooth="yes"/>
      <point x="518" y="474"/>
      <point x="440" y="526"/>
    </contour>
    <contour>
      <point x="171" y="178" type="curve" smooth="yes"/>
      <point x="171" y="262"/>
      <point x="202" y="412"/>
      <point x="312" y="412" type="curve" smooth="yes"/>
      <point x="361" y="412"/>
      <point x="391" y="398"/>
      <point x="391" y="338" type="curve" smooth="yes"/>
      <point x="391" y="267"/>
      <point x="353" y="100"/>
      <point x="250" y="100" type="curve" smooth="yes"/>
      <point x="200" y="100"/>
      <point x="171" y="118"/>
    </contour>
  </outline>
</glyph>
